<mxfile host="app.diagrams.net" modified="2022-05-06T20:38:18.794Z" agent="5.0 (Macintosh; Intel Mac OS X 10_15_7) AppleWebKit/537.36 (KHTML, like Gecko) Chrome/101.0.4951.54 Safari/537.36" etag="wBw59g482Bq4VtZM_QbV" version="18.0.1" type="github" pages="3">
  <diagram id="D-YSAC3Tt-AkZMAXTdBi" name="Baseline business architecture">
    <mxGraphModel dx="1395" dy="2635" grid="1" gridSize="10" guides="1" tooltips="1" connect="1" arrows="1" fold="1" page="1" pageScale="1" pageWidth="1169" pageHeight="1654" math="0" shadow="0">
      <root>
        <mxCell id="0" />
        <mxCell id="1" parent="0" />
        <mxCell id="2VQVNWMDebI-OC0_iPV0-198" value="" style="rounded=0;whiteSpace=wrap;html=1;dashed=1;fontSize=32;strokeColor=#000000;fillColor=none;" parent="1" vertex="1">
          <mxGeometry x="2211" y="60" width="910" height="830" as="geometry" />
        </mxCell>
        <mxCell id="2VQVNWMDebI-OC0_iPV0-199" value="" style="rounded=0;whiteSpace=wrap;html=1;dashed=1;fontSize=32;strokeColor=#000000;fillColor=none;" parent="1" vertex="1">
          <mxGeometry x="70" y="60" width="2070" height="570" as="geometry" />
        </mxCell>
        <mxCell id="2VQVNWMDebI-OC0_iPV0-127" style="edgeStyle=orthogonalEdgeStyle;rounded=0;orthogonalLoop=1;jettySize=auto;html=1;entryX=0.5;entryY=0;entryDx=0;entryDy=0;" parent="1" source="2VQVNWMDebI-OC0_iPV0-109" target="2VQVNWMDebI-OC0_iPV0-111" edge="1">
          <mxGeometry relative="1" as="geometry">
            <Array as="points">
              <mxPoint x="440" y="215" />
              <mxPoint x="440" y="10" />
              <mxPoint x="2380" y="10" />
            </Array>
          </mxGeometry>
        </mxCell>
        <mxCell id="2VQVNWMDebI-OC0_iPV0-191" style="edgeStyle=orthogonalEdgeStyle;rounded=0;orthogonalLoop=1;jettySize=auto;html=1;entryX=0.5;entryY=0;entryDx=0;entryDy=0;fontSize=32;endArrow=blockThin;endFill=1;endSize=14;strokeWidth=1;" parent="1" source="2VQVNWMDebI-OC0_iPV0-189" target="2VQVNWMDebI-OC0_iPV0-126" edge="1">
          <mxGeometry relative="1" as="geometry">
            <Array as="points">
              <mxPoint x="1840" y="302" />
              <mxPoint x="1840" y="30" />
              <mxPoint x="2970" y="30" />
            </Array>
          </mxGeometry>
        </mxCell>
        <mxCell id="2VQVNWMDebI-OC0_iPV0-201" value="" style="group" parent="1" vertex="1" connectable="0">
          <mxGeometry x="2240" y="60" width="860" height="820" as="geometry" />
        </mxCell>
        <mxCell id="2VQVNWMDebI-OC0_iPV0-4" value="" style="html=1;outlineConnect=0;whiteSpace=wrap;fillColor=#ffff99;shape=mxgraph.archimate3.application;appType=func;archiType=rounded;" parent="2VQVNWMDebI-OC0_iPV0-201" vertex="1">
          <mxGeometry x="625" y="50" width="215" height="550" as="geometry" />
        </mxCell>
        <mxCell id="2VQVNWMDebI-OC0_iPV0-6" value="Budget holder approval" style="html=1;outlineConnect=0;whiteSpace=wrap;fillColor=#ffff99;shape=mxgraph.archimate3.application;appType=proc;archiType=rounded;" parent="2VQVNWMDebI-OC0_iPV0-201" vertex="1">
          <mxGeometry x="640" y="170" width="180" height="90" as="geometry" />
        </mxCell>
        <mxCell id="2VQVNWMDebI-OC0_iPV0-110" value="" style="html=1;outlineConnect=0;whiteSpace=wrap;fillColor=#ffff99;shape=mxgraph.archimate3.application;appType=func;archiType=rounded;" parent="2VQVNWMDebI-OC0_iPV0-201" vertex="1">
          <mxGeometry x="30" y="50" width="220" height="340" as="geometry" />
        </mxCell>
        <mxCell id="2VQVNWMDebI-OC0_iPV0-111" value="&lt;b&gt;Purchase Assesment&lt;/b&gt;" style="text;html=1;strokeColor=none;fillColor=none;align=center;verticalAlign=middle;whiteSpace=wrap;rounded=0;" parent="2VQVNWMDebI-OC0_iPV0-201" vertex="1">
          <mxGeometry x="55" y="50" width="170" height="30" as="geometry" />
        </mxCell>
        <mxCell id="2VQVNWMDebI-OC0_iPV0-112" value="Receive purchase request" style="html=1;outlineConnect=0;whiteSpace=wrap;fillColor=#ffff99;shape=mxgraph.archimate3.application;appType=proc;archiType=rounded;" parent="2VQVNWMDebI-OC0_iPV0-201" vertex="1">
          <mxGeometry x="50" y="90" width="180" height="75" as="geometry" />
        </mxCell>
        <mxCell id="2VQVNWMDebI-OC0_iPV0-113" value="Assess if purchase is for&lt;br&gt;a specific staff member" style="html=1;outlineConnect=0;whiteSpace=wrap;fillColor=#ffff99;shape=mxgraph.archimate3.application;appType=proc;archiType=rounded;" parent="2VQVNWMDebI-OC0_iPV0-201" vertex="1">
          <mxGeometry x="50" y="192.5" width="180" height="75" as="geometry" />
        </mxCell>
        <mxCell id="2VQVNWMDebI-OC0_iPV0-114" value="&lt;span style=&quot;font-family: &amp;#34;arialmt&amp;#34; ; font-size: 7pt&quot;&gt;&lt;br&gt;&lt;br&gt;&lt;br&gt;&lt;br&gt;Line Manager to&amp;nbsp;&lt;/span&gt;&lt;span style=&quot;font-family: &amp;#34;arialmt&amp;#34; ; font-size: 7pt&quot;&gt;decide if role is eligible&amp;nbsp;&lt;/span&gt;&lt;span style=&quot;font-family: &amp;#34;arialmt&amp;#34; ; font-size: 7pt&quot;&gt;for specialist&amp;nbsp;&lt;/span&gt;&lt;span style=&quot;font-family: &amp;#34;arialmt&amp;#34; ; font-size: 7pt&quot;&gt;consideration&amp;nbsp;&lt;/span&gt;&lt;span style=&quot;font-family: &amp;#34;arialmt&amp;#34; ; font-size: 7pt&quot;&gt;&lt;br&gt;&lt;/span&gt;&lt;div class=&quot;page&quot; title=&quot;Page 17&quot;&gt;&lt;div class=&quot;layoutArea&quot;&gt;&lt;div class=&quot;column&quot;&gt;&lt;br&gt;    &lt;/div&gt;&lt;br&gt;   &lt;/div&gt;&lt;br&gt;  &lt;/div&gt;" style="html=1;outlineConnect=0;whiteSpace=wrap;fillColor=#ffff99;shape=mxgraph.archimate3.application;appType=proc;archiType=rounded;" parent="2VQVNWMDebI-OC0_iPV0-201" vertex="1">
          <mxGeometry x="50" y="290" width="180" height="75" as="geometry" />
        </mxCell>
        <mxCell id="2VQVNWMDebI-OC0_iPV0-115" value="" style="html=1;outlineConnect=0;whiteSpace=wrap;fillColor=#ffff99;shape=mxgraph.archimate3.application;appType=func;archiType=rounded;" parent="2VQVNWMDebI-OC0_iPV0-201" vertex="1">
          <mxGeometry x="350" y="50" width="220" height="620" as="geometry" />
        </mxCell>
        <mxCell id="2VQVNWMDebI-OC0_iPV0-116" value="&lt;b&gt;Purchase through Special Technology team&lt;/b&gt;" style="text;html=1;strokeColor=none;fillColor=none;align=center;verticalAlign=middle;whiteSpace=wrap;rounded=0;" parent="2VQVNWMDebI-OC0_iPV0-201" vertex="1">
          <mxGeometry x="370" y="50" width="170" height="30" as="geometry" />
        </mxCell>
        <mxCell id="2VQVNWMDebI-OC0_iPV0-139" style="edgeStyle=orthogonalEdgeStyle;rounded=0;orthogonalLoop=1;jettySize=auto;html=1;entryX=0.412;entryY=0;entryDx=0;entryDy=0;entryPerimeter=0;" parent="2VQVNWMDebI-OC0_iPV0-201" source="2VQVNWMDebI-OC0_iPV0-114" target="2VQVNWMDebI-OC0_iPV0-116" edge="1">
          <mxGeometry relative="1" as="geometry">
            <Array as="points">
              <mxPoint x="300" y="327" />
              <mxPoint x="300" y="-10" />
              <mxPoint x="440" y="-10" />
            </Array>
          </mxGeometry>
        </mxCell>
        <mxCell id="2VQVNWMDebI-OC0_iPV0-117" value="&lt;span style=&quot;font-family: &amp;#34;arialmt&amp;#34; ; font-size: 7pt&quot;&gt;Gather Requirements&amp;nbsp;&lt;/span&gt;" style="html=1;outlineConnect=0;whiteSpace=wrap;fillColor=#ffff99;shape=mxgraph.archimate3.application;appType=proc;archiType=rounded;" parent="2VQVNWMDebI-OC0_iPV0-201" vertex="1">
          <mxGeometry x="370" y="180" width="180" height="75" as="geometry" />
        </mxCell>
        <mxCell id="2VQVNWMDebI-OC0_iPV0-118" value="&lt;span style=&quot;font-family: &amp;#34;arialmt&amp;#34; ; font-size: 7pt&quot;&gt;Source solution&lt;/span&gt;" style="html=1;outlineConnect=0;whiteSpace=wrap;fillColor=#ffff99;shape=mxgraph.archimate3.application;appType=proc;archiType=rounded;" parent="2VQVNWMDebI-OC0_iPV0-201" vertex="1">
          <mxGeometry x="370" y="272.5" width="180" height="75" as="geometry" />
        </mxCell>
        <mxCell id="2VQVNWMDebI-OC0_iPV0-119" value="&lt;span style=&quot;font-family: &amp;#34;arialmt&amp;#34; ; font-size: 7pt&quot;&gt;Source funding approval&lt;/span&gt;" style="html=1;outlineConnect=0;whiteSpace=wrap;fillColor=#ffff99;shape=mxgraph.archimate3.application;appType=proc;archiType=rounded;" parent="2VQVNWMDebI-OC0_iPV0-201" vertex="1">
          <mxGeometry x="370" y="372.5" width="180" height="75" as="geometry" />
        </mxCell>
        <mxCell id="2VQVNWMDebI-OC0_iPV0-120" value="&lt;span style=&quot;font-family: &amp;#34;arialmt&amp;#34; ; font-size: 7pt&quot;&gt;Include in following year budget&lt;/span&gt;" style="html=1;outlineConnect=0;whiteSpace=wrap;fillColor=#ffff99;shape=mxgraph.archimate3.application;appType=proc;archiType=rounded;" parent="2VQVNWMDebI-OC0_iPV0-201" vertex="1">
          <mxGeometry x="370" y="472.5" width="180" height="75" as="geometry" />
        </mxCell>
        <mxCell id="2VQVNWMDebI-OC0_iPV0-121" value="Receive purchase request" style="html=1;outlineConnect=0;whiteSpace=wrap;fillColor=#ffff99;shape=mxgraph.archimate3.application;appType=proc;archiType=rounded;" parent="2VQVNWMDebI-OC0_iPV0-201" vertex="1">
          <mxGeometry x="642.5" y="80" width="180" height="75" as="geometry" />
        </mxCell>
        <mxCell id="2VQVNWMDebI-OC0_iPV0-122" value="Receive purchase request" style="html=1;outlineConnect=0;whiteSpace=wrap;fillColor=#ffff99;shape=mxgraph.archimate3.application;appType=proc;archiType=rounded;" parent="2VQVNWMDebI-OC0_iPV0-201" vertex="1">
          <mxGeometry x="370" y="90" width="180" height="75" as="geometry" />
        </mxCell>
        <mxCell id="2VQVNWMDebI-OC0_iPV0-123" value="FXPlus Director Approval" style="html=1;outlineConnect=0;whiteSpace=wrap;fillColor=#ffff99;shape=mxgraph.archimate3.application;appType=proc;archiType=rounded;" parent="2VQVNWMDebI-OC0_iPV0-201" vertex="1">
          <mxGeometry x="640" y="275" width="180" height="90" as="geometry" />
        </mxCell>
        <mxCell id="2VQVNWMDebI-OC0_iPV0-124" value="Order goods" style="html=1;outlineConnect=0;whiteSpace=wrap;fillColor=#ffff99;shape=mxgraph.archimate3.application;appType=proc;archiType=rounded;" parent="2VQVNWMDebI-OC0_iPV0-201" vertex="1">
          <mxGeometry x="642.5" y="382.5" width="180" height="90" as="geometry" />
        </mxCell>
        <mxCell id="2VQVNWMDebI-OC0_iPV0-126" value="&lt;b&gt;FXPlus Procurement&lt;/b&gt;" style="text;html=1;strokeColor=none;fillColor=none;align=center;verticalAlign=middle;whiteSpace=wrap;rounded=0;" parent="2VQVNWMDebI-OC0_iPV0-201" vertex="1">
          <mxGeometry x="645" y="50" width="170" height="30" as="geometry" />
        </mxCell>
        <mxCell id="2VQVNWMDebI-OC0_iPV0-196" style="edgeStyle=orthogonalEdgeStyle;rounded=0;orthogonalLoop=1;jettySize=auto;html=1;entryX=0.5;entryY=0;entryDx=0;entryDy=0;fontSize=32;endArrow=classicThin;endFill=1;endSize=14;strokeWidth=1;" parent="2VQVNWMDebI-OC0_iPV0-201" source="2VQVNWMDebI-OC0_iPV0-194" target="2VQVNWMDebI-OC0_iPV0-126" edge="1">
          <mxGeometry relative="1" as="geometry" />
        </mxCell>
        <mxCell id="2VQVNWMDebI-OC0_iPV0-194" value="Place order via&lt;br&gt;FXPlus" style="html=1;outlineConnect=0;whiteSpace=wrap;fillColor=#ffff99;shape=mxgraph.archimate3.application;appType=proc;archiType=rounded;" parent="2VQVNWMDebI-OC0_iPV0-201" vertex="1">
          <mxGeometry x="375" y="580" width="170" height="75" as="geometry" />
        </mxCell>
        <mxCell id="2VQVNWMDebI-OC0_iPV0-226" value="Receive goods" style="html=1;outlineConnect=0;whiteSpace=wrap;fillColor=#ffff99;shape=mxgraph.archimate3.application;appType=proc;archiType=rounded;" parent="2VQVNWMDebI-OC0_iPV0-201" vertex="1">
          <mxGeometry x="640" y="490" width="180" height="90" as="geometry" />
        </mxCell>
        <mxCell id="2VQVNWMDebI-OC0_iPV0-233" value="Procurement log" style="swimlane;fontSize=16;strokeColor=#000000;fillColor=#FFFF00;fontStyle=0" parent="2VQVNWMDebI-OC0_iPV0-201" vertex="1">
          <mxGeometry x="610" y="690" width="153" height="130" as="geometry" />
        </mxCell>
        <mxCell id="2VQVNWMDebI-OC0_iPV0-234" style="edgeStyle=orthogonalEdgeStyle;rounded=0;orthogonalLoop=1;jettySize=auto;html=1;fontSize=15;endArrow=classic;endFill=1;endSize=8;strokeWidth=1;" parent="2VQVNWMDebI-OC0_iPV0-201" source="2VQVNWMDebI-OC0_iPV0-4" target="2VQVNWMDebI-OC0_iPV0-233" edge="1">
          <mxGeometry relative="1" as="geometry">
            <Array as="points">
              <mxPoint x="733" y="650" />
              <mxPoint x="687" y="650" />
            </Array>
          </mxGeometry>
        </mxCell>
        <mxCell id="2VQVNWMDebI-OC0_iPV0-235" style="edgeStyle=orthogonalEdgeStyle;rounded=0;orthogonalLoop=1;jettySize=auto;html=1;entryX=0.5;entryY=0;entryDx=0;entryDy=0;fontSize=15;endArrow=classic;endFill=1;endSize=8;strokeWidth=1;" parent="2VQVNWMDebI-OC0_iPV0-201" source="2VQVNWMDebI-OC0_iPV0-120" target="2VQVNWMDebI-OC0_iPV0-233" edge="1">
          <mxGeometry relative="1" as="geometry">
            <Array as="points">
              <mxPoint x="610" y="510" />
              <mxPoint x="610" y="650" />
              <mxPoint x="687" y="650" />
            </Array>
          </mxGeometry>
        </mxCell>
        <mxCell id="2VQVNWMDebI-OC0_iPV0-204" value="" style="group" parent="1" vertex="1" connectable="0">
          <mxGeometry x="930" y="669" width="660" height="500" as="geometry" />
        </mxCell>
        <mxCell id="2VQVNWMDebI-OC0_iPV0-203" value="" style="rounded=0;whiteSpace=wrap;html=1;fontSize=36;strokeColor=#000000;fillColor=none;dashed=1;" parent="2VQVNWMDebI-OC0_iPV0-204" vertex="1">
          <mxGeometry width="660" height="500" as="geometry" />
        </mxCell>
        <mxCell id="2VQVNWMDebI-OC0_iPV0-168" value="Agresso" style="shape=module;align=left;spacingLeft=20;align=center;verticalAlign=top;fontSize=36;" parent="2VQVNWMDebI-OC0_iPV0-204" vertex="1">
          <mxGeometry x="65" y="240" width="240" height="140" as="geometry" />
        </mxCell>
        <mxCell id="2VQVNWMDebI-OC0_iPV0-170" value="&lt;font style=&quot;font-size: 14px&quot;&gt;Contract Order Service&lt;/font&gt;" style="strokeWidth=2;html=1;shape=mxgraph.flowchart.terminator;whiteSpace=wrap;fontSize=36;fillColor=#FFFF00;strokeColor=#000000;" parent="2VQVNWMDebI-OC0_iPV0-204" vertex="1">
          <mxGeometry x="110" y="50" width="150" height="70" as="geometry" />
        </mxCell>
        <mxCell id="2VQVNWMDebI-OC0_iPV0-171" style="edgeStyle=orthogonalEdgeStyle;rounded=0;orthogonalLoop=1;jettySize=auto;html=1;entryX=0.5;entryY=1;entryDx=0;entryDy=0;entryPerimeter=0;fontSize=19;endArrow=block;endFill=0;dashed=1;strokeWidth=1;endSize=20;" parent="2VQVNWMDebI-OC0_iPV0-204" source="2VQVNWMDebI-OC0_iPV0-168" target="2VQVNWMDebI-OC0_iPV0-170" edge="1">
          <mxGeometry relative="1" as="geometry" />
        </mxCell>
        <mxCell id="2VQVNWMDebI-OC0_iPV0-176" value="" style="shape=folder;fontStyle=1;spacingTop=10;tabWidth=40;tabHeight=14;tabPosition=left;html=1;fontSize=14;strokeColor=#000000;fillColor=none;" parent="2VQVNWMDebI-OC0_iPV0-204" vertex="1">
          <mxGeometry x="390" y="370" width="210" height="101" as="geometry" />
        </mxCell>
        <mxCell id="2VQVNWMDebI-OC0_iPV0-177" value="&lt;font style=&quot;font-size: 32px&quot;&gt;Shop&lt;/font&gt;" style="text;html=1;strokeColor=none;fillColor=none;align=center;verticalAlign=middle;whiteSpace=wrap;rounded=0;dashed=1;fontSize=14;" parent="2VQVNWMDebI-OC0_iPV0-204" vertex="1">
          <mxGeometry x="432.5" y="391" width="125" height="71" as="geometry" />
        </mxCell>
        <mxCell id="2VQVNWMDebI-OC0_iPV0-180" value="&lt;font style=&quot;font-size: 14px&quot;&gt;Order Service&lt;/font&gt;" style="strokeWidth=2;html=1;shape=mxgraph.flowchart.terminator;whiteSpace=wrap;fontSize=36;fillColor=#FFFF00;strokeColor=#000000;" parent="2VQVNWMDebI-OC0_iPV0-204" vertex="1">
          <mxGeometry x="440" y="50" width="150" height="70" as="geometry" />
        </mxCell>
        <mxCell id="2VQVNWMDebI-OC0_iPV0-182" style="edgeStyle=orthogonalEdgeStyle;rounded=0;orthogonalLoop=1;jettySize=auto;html=1;entryX=0.5;entryY=1;entryDx=0;entryDy=0;entryPerimeter=0;dashed=1;fontSize=14;endArrow=block;endFill=0;endSize=14;strokeWidth=1;" parent="2VQVNWMDebI-OC0_iPV0-204" source="2VQVNWMDebI-OC0_iPV0-181" target="2VQVNWMDebI-OC0_iPV0-180" edge="1">
          <mxGeometry relative="1" as="geometry">
            <Array as="points">
              <mxPoint x="515" y="210" />
              <mxPoint x="515" y="210" />
            </Array>
          </mxGeometry>
        </mxCell>
        <mxCell id="2VQVNWMDebI-OC0_iPV0-181" value="iTrap" style="shape=module;align=left;spacingLeft=20;align=center;verticalAlign=top;fontSize=36;" parent="2VQVNWMDebI-OC0_iPV0-204" vertex="1">
          <mxGeometry x="380" y="245" width="230" height="105" as="geometry" />
        </mxCell>
        <mxCell id="2VQVNWMDebI-OC0_iPV0-205" value="&lt;font style=&quot;font-size: 36px&quot;&gt;IT Procument Third Parties&lt;/font&gt;" style="text;html=1;strokeColor=none;fillColor=none;align=center;verticalAlign=middle;whiteSpace=wrap;rounded=0;fontSize=32;rotation=-90;" parent="2VQVNWMDebI-OC0_iPV0-204" vertex="1">
          <mxGeometry x="-200" y="245" width="452.5" height="30" as="geometry" />
        </mxCell>
        <mxCell id="2VQVNWMDebI-OC0_iPV0-238" value="Order complete" style="html=1;outlineConnect=0;whiteSpace=wrap;fillColor=none;shape=mxgraph.archimate3.application;appType=proc;archiType=rounded;" parent="2VQVNWMDebI-OC0_iPV0-204" vertex="1">
          <mxGeometry x="100" y="295" width="170" height="75" as="geometry" />
        </mxCell>
        <mxCell id="2VQVNWMDebI-OC0_iPV0-239" value="Order complete" style="html=1;outlineConnect=0;whiteSpace=wrap;fillColor=none;shape=mxgraph.archimate3.application;appType=proc;archiType=rounded;" parent="2VQVNWMDebI-OC0_iPV0-204" vertex="1">
          <mxGeometry x="432.5" y="295" width="140" height="49" as="geometry" />
        </mxCell>
        <mxCell id="2VQVNWMDebI-OC0_iPV0-206" value="Employee" style="shape=umlActor;verticalLabelPosition=bottom;verticalAlign=top;html=1;outlineConnect=0;fontSize=36;strokeColor=#000000;fillColor=none;" parent="1" vertex="1">
          <mxGeometry x="200" y="-249" width="30" height="60" as="geometry" />
        </mxCell>
        <mxCell id="2VQVNWMDebI-OC0_iPV0-210" style="edgeStyle=orthogonalEdgeStyle;rounded=0;orthogonalLoop=1;jettySize=auto;html=1;fontSize=20;endArrow=open;endFill=0;endSize=14;strokeWidth=1;" parent="1" source="2VQVNWMDebI-OC0_iPV0-208" edge="1">
          <mxGeometry relative="1" as="geometry">
            <mxPoint x="220" y="-140" as="targetPoint" />
          </mxGeometry>
        </mxCell>
        <mxCell id="2VQVNWMDebI-OC0_iPV0-214" style="edgeStyle=orthogonalEdgeStyle;rounded=0;orthogonalLoop=1;jettySize=auto;html=1;entryX=0.25;entryY=0;entryDx=0;entryDy=0;fontSize=16;endArrow=block;endFill=0;endSize=14;strokeWidth=1;" parent="1" source="2VQVNWMDebI-OC0_iPV0-208" target="2VQVNWMDebI-OC0_iPV0-213" edge="1">
          <mxGeometry relative="1" as="geometry">
            <Array as="points">
              <mxPoint x="160" y="-30" />
              <mxPoint x="160" y="-30" />
            </Array>
          </mxGeometry>
        </mxCell>
        <mxCell id="2VQVNWMDebI-OC0_iPV0-208" value="&lt;font style=&quot;font-size: 20px&quot;&gt;Procument request&lt;/font&gt;" style="shape=document;whiteSpace=wrap;html=1;boundedLbl=1;fontSize=36;strokeColor=#000000;fillColor=#FFFF00;" parent="1" vertex="1">
          <mxGeometry x="130" y="-94" width="180" height="100" as="geometry" />
        </mxCell>
        <mxCell id="2VQVNWMDebI-OC0_iPV0-99" value="" style="html=1;outlineConnect=0;whiteSpace=wrap;fillColor=#ffff99;shape=mxgraph.archimate3.application;appType=func;archiType=rounded;" parent="1" vertex="1">
          <mxGeometry x="1600" y="127.5" width="220" height="232.5" as="geometry" />
        </mxCell>
        <mxCell id="2VQVNWMDebI-OC0_iPV0-98" value="" style="html=1;outlineConnect=0;whiteSpace=wrap;fillColor=#ffff99;shape=mxgraph.archimate3.application;appType=func;archiType=rounded;" parent="1" vertex="1">
          <mxGeometry x="980" y="105" width="220" height="385" as="geometry" />
        </mxCell>
        <mxCell id="2VQVNWMDebI-OC0_iPV0-237" style="edgeStyle=orthogonalEdgeStyle;rounded=0;orthogonalLoop=1;jettySize=auto;html=1;entryX=0.412;entryY=0;entryDx=0;entryDy=0;entryPerimeter=0;fontSize=15;endArrow=classic;endFill=1;endSize=8;strokeWidth=1;" parent="1" source="2VQVNWMDebI-OC0_iPV0-100" target="2VQVNWMDebI-OC0_iPV0-116" edge="1">
          <mxGeometry relative="1" as="geometry">
            <Array as="points">
              <mxPoint x="2010" y="50" />
              <mxPoint x="2680" y="50" />
            </Array>
          </mxGeometry>
        </mxCell>
        <mxCell id="2VQVNWMDebI-OC0_iPV0-100" value="" style="html=1;outlineConnect=0;whiteSpace=wrap;fillColor=#ffff99;shape=mxgraph.archimate3.application;appType=func;archiType=rounded;" parent="1" vertex="1">
          <mxGeometry x="1900" y="120" width="220" height="140" as="geometry" />
        </mxCell>
        <mxCell id="2VQVNWMDebI-OC0_iPV0-101" value="" style="html=1;outlineConnect=0;whiteSpace=wrap;fillColor=#ffff99;shape=mxgraph.archimate3.application;appType=func;archiType=rounded;" parent="1" vertex="1">
          <mxGeometry x="1280" y="107.5" width="220" height="432.5" as="geometry" />
        </mxCell>
        <mxCell id="2VQVNWMDebI-OC0_iPV0-105" value="ICT Service Request" style="text;html=1;strokeColor=none;fillColor=none;align=center;verticalAlign=middle;whiteSpace=wrap;rounded=0;" parent="1" vertex="1">
          <mxGeometry x="1000" y="105" width="170" height="30" as="geometry" />
        </mxCell>
        <mxCell id="2VQVNWMDebI-OC0_iPV0-107" value="other ICT purchase" style="text;html=1;strokeColor=none;fillColor=none;align=center;verticalAlign=middle;whiteSpace=wrap;rounded=0;" parent="1" vertex="1">
          <mxGeometry x="1925" y="120" width="170" height="30" as="geometry" />
        </mxCell>
        <mxCell id="2VQVNWMDebI-OC0_iPV0-108" value="ICT Consumables Request" style="text;html=1;strokeColor=none;fillColor=none;align=center;verticalAlign=middle;whiteSpace=wrap;rounded=0;" parent="1" vertex="1">
          <mxGeometry x="1305" y="107.5" width="170" height="30" as="geometry" />
        </mxCell>
        <mxCell id="2VQVNWMDebI-OC0_iPV0-140" value="" style="group" parent="1" vertex="1" connectable="0">
          <mxGeometry x="460" y="110" width="220" height="380" as="geometry" />
        </mxCell>
        <mxCell id="2VQVNWMDebI-OC0_iPV0-96" value="" style="html=1;outlineConnect=0;whiteSpace=wrap;fillColor=#ffff99;shape=mxgraph.archimate3.application;appType=func;archiType=rounded;" parent="2VQVNWMDebI-OC0_iPV0-140" vertex="1">
          <mxGeometry width="220" height="380" as="geometry" />
        </mxCell>
        <mxCell id="2VQVNWMDebI-OC0_iPV0-103" value="Hardware Replacement" style="text;html=1;strokeColor=none;fillColor=none;align=center;verticalAlign=middle;whiteSpace=wrap;rounded=0;" parent="2VQVNWMDebI-OC0_iPV0-140" vertex="1">
          <mxGeometry x="20" width="170" height="43.84615384615385" as="geometry" />
        </mxCell>
        <mxCell id="2VQVNWMDebI-OC0_iPV0-128" value="Assess if item is due for replacement" style="html=1;outlineConnect=0;whiteSpace=wrap;fillColor=#ffff99;shape=mxgraph.archimate3.application;appType=proc;archiType=rounded;" parent="2VQVNWMDebI-OC0_iPV0-140" vertex="1">
          <mxGeometry x="25" y="60" width="170" height="60" as="geometry" />
        </mxCell>
        <mxCell id="2VQVNWMDebI-OC0_iPV0-129" value="Assess for planned replacement" style="html=1;outlineConnect=0;whiteSpace=wrap;fillColor=#ffff99;shape=mxgraph.archimate3.application;appType=proc;archiType=rounded;" parent="2VQVNWMDebI-OC0_iPV0-140" vertex="1">
          <mxGeometry x="25" y="146.61" width="170" height="70.77" as="geometry" />
        </mxCell>
        <mxCell id="2VQVNWMDebI-OC0_iPV0-159" value="Place order via&lt;br&gt;FXPlus" style="html=1;outlineConnect=0;whiteSpace=wrap;fillColor=#ffff99;shape=mxgraph.archimate3.application;appType=proc;archiType=rounded;" parent="2VQVNWMDebI-OC0_iPV0-140" vertex="1">
          <mxGeometry x="25" y="250" width="170" height="75" as="geometry" />
        </mxCell>
        <mxCell id="2VQVNWMDebI-OC0_iPV0-141" value="" style="group" parent="1" vertex="1" connectable="0">
          <mxGeometry x="205" y="110" width="220" height="180" as="geometry" />
        </mxCell>
        <mxCell id="2VQVNWMDebI-OC0_iPV0-3" value="" style="html=1;outlineConnect=0;whiteSpace=wrap;fillColor=#ffff99;shape=mxgraph.archimate3.application;appType=func;archiType=rounded;" parent="2VQVNWMDebI-OC0_iPV0-141" vertex="1">
          <mxGeometry width="220" height="180" as="geometry" />
        </mxCell>
        <mxCell id="2VQVNWMDebI-OC0_iPV0-102" value="New Hardware Request" style="text;html=1;strokeColor=none;fillColor=none;align=center;verticalAlign=middle;whiteSpace=wrap;rounded=0;" parent="2VQVNWMDebI-OC0_iPV0-141" vertex="1">
          <mxGeometry x="35" width="170" height="30" as="geometry" />
        </mxCell>
        <mxCell id="2VQVNWMDebI-OC0_iPV0-109" value="Receive new hardware &lt;br&gt;request" style="html=1;outlineConnect=0;whiteSpace=wrap;fillColor=#ffff99;shape=mxgraph.archimate3.application;appType=proc;archiType=rounded;" parent="2VQVNWMDebI-OC0_iPV0-141" vertex="1">
          <mxGeometry x="25" y="67.5" width="170" height="75" as="geometry" />
        </mxCell>
        <mxCell id="2VQVNWMDebI-OC0_iPV0-142" value="" style="group" parent="1" vertex="1" connectable="0">
          <mxGeometry x="710" y="110" width="220" height="380" as="geometry" />
        </mxCell>
        <mxCell id="2VQVNWMDebI-OC0_iPV0-97" value="" style="html=1;outlineConnect=0;whiteSpace=wrap;fillColor=#ffff99;shape=mxgraph.archimate3.application;appType=func;archiType=rounded;" parent="2VQVNWMDebI-OC0_iPV0-142" vertex="1">
          <mxGeometry width="220" height="380" as="geometry" />
        </mxCell>
        <mxCell id="2VQVNWMDebI-OC0_iPV0-104" value="Software Licence &amp;amp; Subscription" style="text;html=1;strokeColor=none;fillColor=none;align=center;verticalAlign=middle;whiteSpace=wrap;rounded=0;" parent="2VQVNWMDebI-OC0_iPV0-142" vertex="1">
          <mxGeometry x="20" width="170" height="30" as="geometry" />
        </mxCell>
        <mxCell id="2VQVNWMDebI-OC0_iPV0-131" value="Check for existing software&lt;br&gt;License agreement" style="html=1;outlineConnect=0;whiteSpace=wrap;fillColor=#ffff99;shape=mxgraph.archimate3.application;appType=proc;archiType=rounded;" parent="2VQVNWMDebI-OC0_iPV0-142" vertex="1">
          <mxGeometry x="20" y="52.5" width="170" height="75" as="geometry" />
        </mxCell>
        <mxCell id="2VQVNWMDebI-OC0_iPV0-133" value="Assess for additional license&amp;nbsp;&lt;br&gt;purchase" style="html=1;outlineConnect=0;whiteSpace=wrap;fillColor=#ffff99;shape=mxgraph.archimate3.application;appType=proc;archiType=rounded;" parent="2VQVNWMDebI-OC0_iPV0-142" vertex="1">
          <mxGeometry x="25" y="150" width="170" height="75" as="geometry" />
        </mxCell>
        <mxCell id="2VQVNWMDebI-OC0_iPV0-134" value="Place order via&lt;br&gt;FXPlus" style="html=1;outlineConnect=0;whiteSpace=wrap;fillColor=#ffff99;shape=mxgraph.archimate3.application;appType=proc;archiType=rounded;" parent="2VQVNWMDebI-OC0_iPV0-142" vertex="1">
          <mxGeometry x="25" y="247.5" width="170" height="75" as="geometry" />
        </mxCell>
        <mxCell id="2VQVNWMDebI-OC0_iPV0-162" value="Check for existing contract in place for service required" style="html=1;outlineConnect=0;whiteSpace=wrap;fillColor=#ffff99;shape=mxgraph.archimate3.application;appType=proc;archiType=rounded;" parent="1" vertex="1">
          <mxGeometry x="1005" y="162.5" width="170" height="75" as="geometry" />
        </mxCell>
        <mxCell id="2VQVNWMDebI-OC0_iPV0-163" value="Place order on Agresso" style="html=1;outlineConnect=0;whiteSpace=wrap;fillColor=#ffff99;shape=mxgraph.archimate3.application;appType=proc;archiType=rounded;" parent="1" vertex="1">
          <mxGeometry x="1005" y="262.5" width="170" height="75" as="geometry" />
        </mxCell>
        <mxCell id="2VQVNWMDebI-OC0_iPV0-164" value="Place order via&lt;br&gt;FXPlus" style="html=1;outlineConnect=0;whiteSpace=wrap;fillColor=#ffff99;shape=mxgraph.archimate3.application;appType=proc;archiType=rounded;" parent="1" vertex="1">
          <mxGeometry x="1005" y="357.5" width="170" height="75" as="geometry" />
        </mxCell>
        <mxCell id="2VQVNWMDebI-OC0_iPV0-173" value="Check if item is in the Standard Items list" style="html=1;outlineConnect=0;whiteSpace=wrap;fillColor=#ffff99;shape=mxgraph.archimate3.application;appType=proc;archiType=rounded;" parent="1" vertex="1">
          <mxGeometry x="1300" y="150" width="170" height="75" as="geometry" />
        </mxCell>
        <mxCell id="2VQVNWMDebI-OC0_iPV0-187" style="edgeStyle=orthogonalEdgeStyle;rounded=0;orthogonalLoop=1;jettySize=auto;html=1;fontSize=32;endArrow=open;endFill=0;endSize=14;strokeWidth=1;" parent="1" source="2VQVNWMDebI-OC0_iPV0-178" target="2VQVNWMDebI-OC0_iPV0-3" edge="1">
          <mxGeometry relative="1" as="geometry">
            <Array as="points">
              <mxPoint x="1385" y="510" />
              <mxPoint x="315" y="510" />
            </Array>
          </mxGeometry>
        </mxCell>
        <mxCell id="2VQVNWMDebI-OC0_iPV0-178" value="Check Approved Suppliers with FXPlus" style="html=1;outlineConnect=0;whiteSpace=wrap;fillColor=#ffff99;shape=mxgraph.archimate3.application;appType=proc;archiType=rounded;" parent="1" vertex="1">
          <mxGeometry x="1300" y="415" width="170" height="75" as="geometry" />
        </mxCell>
        <mxCell id="2VQVNWMDebI-OC0_iPV0-179" value="Bulk purchase arrangement in place with iTrap" style="html=1;outlineConnect=0;whiteSpace=wrap;fillColor=#ffff99;shape=mxgraph.archimate3.application;appType=proc;archiType=rounded;" parent="1" vertex="1">
          <mxGeometry x="1300" y="314.5" width="170" height="75" as="geometry" />
        </mxCell>
        <mxCell id="2VQVNWMDebI-OC0_iPV0-185" value="Buy from shop" style="html=1;outlineConnect=0;whiteSpace=wrap;fillColor=#ffff99;shape=mxgraph.archimate3.application;appType=proc;archiType=rounded;" parent="1" vertex="1">
          <mxGeometry x="1300" y="230" width="170" height="75" as="geometry" />
        </mxCell>
        <mxCell id="2VQVNWMDebI-OC0_iPV0-190" value="" style="group" parent="1" vertex="1" connectable="0">
          <mxGeometry x="1600" y="127.5" width="220" height="380" as="geometry" />
        </mxCell>
        <mxCell id="2VQVNWMDebI-OC0_iPV0-106" value="Mobile Phone Request&lt;span style=&quot;color: rgba(0 , 0 , 0 , 0) ; font-family: monospace ; font-size: 0px&quot;&gt;%3CmxGraphModel%3E%3Croot%3E%3CmxCell%20id%3D%220%22%2F%3E%3CmxCell%20id%3D%221%22%20parent%3D%220%22%2F%3E%3CmxCell%20id%3D%222%22%20value%3D%22New%20Hardware%20Request%22%20style%3D%22text%3Bhtml%3D1%3BstrokeColor%3Dnone%3BfillColor%3Dnone%3Balign%3Dcenter%3BverticalAlign%3Dmiddle%3BwhiteSpace%3Dwrap%3Brounded%3D0%3B%22%20vertex%3D%221%22%20parent%3D%221%22%3E%3CmxGeometry%20x%3D%22240%22%20y%3D%22110%22%20width%3D%22170%22%20height%3D%2230%22%20as%3D%22geometry%22%2F%3E%3C%2FmxCell%3E%3C%2Froot%3E%3C%2FmxGraphModel%3E&lt;/span&gt;" style="text;html=1;strokeColor=none;fillColor=none;align=center;verticalAlign=middle;whiteSpace=wrap;rounded=0;" parent="2VQVNWMDebI-OC0_iPV0-190" vertex="1">
          <mxGeometry x="25" width="170" height="30" as="geometry" />
        </mxCell>
        <mxCell id="2VQVNWMDebI-OC0_iPV0-188" value="Check if staff is eligible for item" style="html=1;outlineConnect=0;whiteSpace=wrap;fillColor=#ffff99;shape=mxgraph.archimate3.application;appType=proc;archiType=rounded;" parent="2VQVNWMDebI-OC0_iPV0-190" vertex="1">
          <mxGeometry x="25" y="42.5" width="170" height="75" as="geometry" />
        </mxCell>
        <mxCell id="2VQVNWMDebI-OC0_iPV0-189" value="Place order via&lt;br&gt;FXPlus" style="html=1;outlineConnect=0;whiteSpace=wrap;fillColor=#ffff99;shape=mxgraph.archimate3.application;appType=proc;archiType=rounded;" parent="2VQVNWMDebI-OC0_iPV0-190" vertex="1">
          <mxGeometry x="25" y="137.5" width="170" height="75" as="geometry" />
        </mxCell>
        <mxCell id="2VQVNWMDebI-OC0_iPV0-192" value="other ICT purchase request" style="html=1;outlineConnect=0;whiteSpace=wrap;fillColor=#ffff99;shape=mxgraph.archimate3.application;appType=proc;archiType=rounded;" parent="1" vertex="1">
          <mxGeometry x="1932.5" y="170" width="155" height="75" as="geometry" />
        </mxCell>
        <mxCell id="2VQVNWMDebI-OC0_iPV0-200" value="&lt;font style=&quot;font-size: 36px&quot;&gt;IT Procument&lt;/font&gt;" style="text;html=1;strokeColor=none;fillColor=none;align=center;verticalAlign=middle;whiteSpace=wrap;rounded=0;fontSize=32;rotation=-90;" parent="1" vertex="1">
          <mxGeometry x="-130" y="290" width="452.5" height="30" as="geometry" />
        </mxCell>
        <mxCell id="2VQVNWMDebI-OC0_iPV0-215" style="edgeStyle=orthogonalEdgeStyle;rounded=0;orthogonalLoop=1;jettySize=auto;html=1;entryX=0.082;entryY=0.404;entryDx=0;entryDy=0;entryPerimeter=0;fontSize=16;endArrow=classic;endFill=1;endSize=10;strokeWidth=1;dashed=1;" parent="1" source="2VQVNWMDebI-OC0_iPV0-213" target="2VQVNWMDebI-OC0_iPV0-199" edge="1">
          <mxGeometry relative="1" as="geometry">
            <Array as="points">
              <mxPoint x="240" y="480" />
              <mxPoint x="240" y="480" />
            </Array>
          </mxGeometry>
        </mxCell>
        <mxCell id="2VQVNWMDebI-OC0_iPV0-216" style="edgeStyle=orthogonalEdgeStyle;rounded=0;orthogonalLoop=1;jettySize=auto;html=1;entryX=0.232;entryY=0.737;entryDx=0;entryDy=0;entryPerimeter=0;fontSize=16;endArrow=classic;endFill=1;endSize=10;strokeWidth=1;dashed=1;" parent="1" source="2VQVNWMDebI-OC0_iPV0-213" target="2VQVNWMDebI-OC0_iPV0-199" edge="1">
          <mxGeometry relative="1" as="geometry">
            <Array as="points">
              <mxPoint x="550" y="570" />
            </Array>
          </mxGeometry>
        </mxCell>
        <mxCell id="2VQVNWMDebI-OC0_iPV0-217" style="edgeStyle=orthogonalEdgeStyle;rounded=0;orthogonalLoop=1;jettySize=auto;html=1;entryX=0.362;entryY=0.737;entryDx=0;entryDy=0;entryPerimeter=0;dashed=1;fontSize=16;endArrow=classic;endFill=1;endSize=10;strokeWidth=1;" parent="1" source="2VQVNWMDebI-OC0_iPV0-213" target="2VQVNWMDebI-OC0_iPV0-199" edge="1">
          <mxGeometry relative="1" as="geometry">
            <Array as="points">
              <mxPoint x="819" y="570" />
            </Array>
          </mxGeometry>
        </mxCell>
        <mxCell id="2VQVNWMDebI-OC0_iPV0-220" style="edgeStyle=orthogonalEdgeStyle;rounded=0;orthogonalLoop=1;jettySize=auto;html=1;entryX=0.493;entryY=0.754;entryDx=0;entryDy=0;entryPerimeter=0;dashed=1;fontSize=16;endArrow=classic;endFill=1;endSize=10;strokeWidth=1;" parent="1" source="2VQVNWMDebI-OC0_iPV0-213" target="2VQVNWMDebI-OC0_iPV0-199" edge="1">
          <mxGeometry relative="1" as="geometry">
            <Array as="points">
              <mxPoint x="1091" y="570" />
            </Array>
          </mxGeometry>
        </mxCell>
        <mxCell id="2VQVNWMDebI-OC0_iPV0-221" style="edgeStyle=orthogonalEdgeStyle;rounded=0;orthogonalLoop=1;jettySize=auto;html=1;entryX=0.638;entryY=0.842;entryDx=0;entryDy=0;entryPerimeter=0;dashed=1;fontSize=16;endArrow=classic;endFill=1;endSize=10;strokeWidth=1;" parent="1" target="2VQVNWMDebI-OC0_iPV0-199" edge="1">
          <mxGeometry relative="1" as="geometry">
            <mxPoint x="290" y="570" as="sourcePoint" />
            <Array as="points">
              <mxPoint x="1391" y="570" />
            </Array>
          </mxGeometry>
        </mxCell>
        <mxCell id="2VQVNWMDebI-OC0_iPV0-222" style="edgeStyle=orthogonalEdgeStyle;rounded=0;orthogonalLoop=1;jettySize=auto;html=1;entryX=0.797;entryY=0.526;entryDx=0;entryDy=0;entryPerimeter=0;dashed=1;fontSize=16;endArrow=classic;endFill=1;endSize=10;strokeWidth=1;" parent="1" source="2VQVNWMDebI-OC0_iPV0-213" target="2VQVNWMDebI-OC0_iPV0-199" edge="1">
          <mxGeometry relative="1" as="geometry">
            <Array as="points">
              <mxPoint x="1720" y="570" />
            </Array>
          </mxGeometry>
        </mxCell>
        <mxCell id="2VQVNWMDebI-OC0_iPV0-223" style="edgeStyle=orthogonalEdgeStyle;rounded=0;orthogonalLoop=1;jettySize=auto;html=1;entryX=0.942;entryY=0.351;entryDx=0;entryDy=0;entryPerimeter=0;dashed=1;fontSize=16;endArrow=classic;endFill=1;endSize=10;strokeWidth=1;" parent="1" source="2VQVNWMDebI-OC0_iPV0-213" target="2VQVNWMDebI-OC0_iPV0-199" edge="1">
          <mxGeometry relative="1" as="geometry">
            <Array as="points">
              <mxPoint x="2020" y="570" />
            </Array>
          </mxGeometry>
        </mxCell>
        <mxCell id="2VQVNWMDebI-OC0_iPV0-213" value="Procument request" style="swimlane;fontSize=16;strokeColor=#000000;fillColor=#FFFF00;fontStyle=0" parent="1" vertex="1">
          <mxGeometry x="120" y="489" width="160" height="130" as="geometry" />
        </mxCell>
        <mxCell id="2VQVNWMDebI-OC0_iPV0-137" style="edgeStyle=orthogonalEdgeStyle;rounded=0;orthogonalLoop=1;jettySize=auto;html=1;entryX=0.5;entryY=0;entryDx=0;entryDy=0;" parent="1" source="2VQVNWMDebI-OC0_iPV0-133" target="2VQVNWMDebI-OC0_iPV0-111" edge="1">
          <mxGeometry relative="1" as="geometry">
            <Array as="points">
              <mxPoint x="940" y="297" />
              <mxPoint x="940" y="10" />
              <mxPoint x="2380" y="10" />
            </Array>
          </mxGeometry>
        </mxCell>
        <mxCell id="2VQVNWMDebI-OC0_iPV0-152" style="edgeStyle=orthogonalEdgeStyle;rounded=0;orthogonalLoop=1;jettySize=auto;html=1;entryX=0.5;entryY=0;entryDx=0;entryDy=0;fontSize=36;" parent="1" source="2VQVNWMDebI-OC0_iPV0-134" target="2VQVNWMDebI-OC0_iPV0-126" edge="1">
          <mxGeometry relative="1" as="geometry">
            <Array as="points">
              <mxPoint x="950" y="395" />
              <mxPoint x="950" y="30" />
              <mxPoint x="2970" y="30" />
            </Array>
          </mxGeometry>
        </mxCell>
        <mxCell id="2VQVNWMDebI-OC0_iPV0-160" style="edgeStyle=orthogonalEdgeStyle;rounded=0;orthogonalLoop=1;jettySize=auto;html=1;entryX=0.5;entryY=0;entryDx=0;entryDy=0;fontSize=36;" parent="1" source="2VQVNWMDebI-OC0_iPV0-129" target="2VQVNWMDebI-OC0_iPV0-111" edge="1">
          <mxGeometry relative="1" as="geometry">
            <Array as="points">
              <mxPoint x="690" y="300" />
              <mxPoint x="690" y="20" />
              <mxPoint x="2380" y="20" />
            </Array>
          </mxGeometry>
        </mxCell>
        <mxCell id="2VQVNWMDebI-OC0_iPV0-161" style="edgeStyle=orthogonalEdgeStyle;rounded=0;orthogonalLoop=1;jettySize=auto;html=1;entryX=0.5;entryY=0;entryDx=0;entryDy=0;fontSize=36;" parent="1" source="2VQVNWMDebI-OC0_iPV0-159" target="2VQVNWMDebI-OC0_iPV0-126" edge="1">
          <mxGeometry relative="1" as="geometry">
            <Array as="points">
              <mxPoint x="700" y="397" />
              <mxPoint x="700" y="30" />
              <mxPoint x="2970" y="30" />
            </Array>
          </mxGeometry>
        </mxCell>
        <mxCell id="2VQVNWMDebI-OC0_iPV0-165" style="edgeStyle=orthogonalEdgeStyle;rounded=0;orthogonalLoop=1;jettySize=auto;html=1;entryX=0.5;entryY=0;entryDx=0;entryDy=0;fontSize=36;" parent="1" source="2VQVNWMDebI-OC0_iPV0-164" target="2VQVNWMDebI-OC0_iPV0-126" edge="1">
          <mxGeometry relative="1" as="geometry">
            <Array as="points">
              <mxPoint x="1220" y="395" />
              <mxPoint x="1220" y="30" />
              <mxPoint x="2970" y="30" />
            </Array>
          </mxGeometry>
        </mxCell>
        <mxCell id="2VQVNWMDebI-OC0_iPV0-172" style="edgeStyle=orthogonalEdgeStyle;rounded=0;orthogonalLoop=1;jettySize=auto;html=1;entryX=1;entryY=0.5;entryDx=0;entryDy=0;entryPerimeter=0;fontSize=19;endArrow=open;endFill=0;endSize=14;" parent="1" source="2VQVNWMDebI-OC0_iPV0-170" target="2VQVNWMDebI-OC0_iPV0-163" edge="1">
          <mxGeometry relative="1" as="geometry">
            <Array as="points">
              <mxPoint x="1240" y="600" />
              <mxPoint x="1240" y="300" />
            </Array>
          </mxGeometry>
        </mxCell>
        <mxCell id="2VQVNWMDebI-OC0_iPV0-184" style="edgeStyle=orthogonalEdgeStyle;rounded=0;orthogonalLoop=1;jettySize=auto;html=1;entryX=1;entryY=0.5;entryDx=0;entryDy=0;entryPerimeter=0;fontSize=32;endArrow=open;endFill=0;endSize=14;strokeWidth=1;" parent="1" source="2VQVNWMDebI-OC0_iPV0-180" target="2VQVNWMDebI-OC0_iPV0-179" edge="1">
          <mxGeometry relative="1" as="geometry">
            <Array as="points">
              <mxPoint x="1540" y="605" />
              <mxPoint x="1540" y="352" />
            </Array>
          </mxGeometry>
        </mxCell>
        <mxCell id="2VQVNWMDebI-OC0_iPV0-186" style="edgeStyle=orthogonalEdgeStyle;rounded=0;orthogonalLoop=1;jettySize=auto;html=1;entryX=1;entryY=0.5;entryDx=0;entryDy=0;entryPerimeter=0;fontSize=32;endArrow=open;endFill=0;endSize=14;strokeWidth=1;exitX=0;exitY=0;exitDx=210;exitDy=57.50000000000001;exitPerimeter=0;" parent="1" source="2VQVNWMDebI-OC0_iPV0-176" target="2VQVNWMDebI-OC0_iPV0-185" edge="1">
          <mxGeometry relative="1" as="geometry">
            <Array as="points">
              <mxPoint x="1560" y="1097" />
              <mxPoint x="1560" y="267" />
            </Array>
          </mxGeometry>
        </mxCell>
        <mxCell id="2VQVNWMDebI-OC0_iPV0-232" style="edgeStyle=orthogonalEdgeStyle;rounded=0;orthogonalLoop=1;jettySize=auto;html=1;entryX=1;entryY=0.3333333333333333;entryDx=0;entryDy=0;entryPerimeter=0;fontSize=15;endArrow=open;endFill=0;endSize=16;strokeWidth=1;" parent="1" source="2VQVNWMDebI-OC0_iPV0-228" target="2VQVNWMDebI-OC0_iPV0-206" edge="1">
          <mxGeometry relative="1" as="geometry" />
        </mxCell>
        <mxCell id="2VQVNWMDebI-OC0_iPV0-228" value="&lt;font style=&quot;font-size: 15px&quot;&gt;Procurement&lt;br&gt;completed notification&lt;br&gt;&lt;/font&gt;" style="shape=document;whiteSpace=wrap;html=1;boundedLbl=1;fontSize=36;strokeColor=#000000;fillColor=#FFFF00;" parent="1" vertex="1">
          <mxGeometry x="2810" y="-295" width="210" height="130" as="geometry" />
        </mxCell>
        <mxCell id="2VQVNWMDebI-OC0_iPV0-231" style="edgeStyle=orthogonalEdgeStyle;rounded=0;orthogonalLoop=1;jettySize=auto;html=1;entryX=1;entryY=0.5;entryDx=0;entryDy=0;dashed=1;fontSize=15;endArrow=block;endFill=0;endSize=16;strokeWidth=1;" parent="1" source="2VQVNWMDebI-OC0_iPV0-226" target="2VQVNWMDebI-OC0_iPV0-228" edge="1">
          <mxGeometry relative="1" as="geometry">
            <Array as="points">
              <mxPoint x="3190" y="595" />
              <mxPoint x="3190" y="-230" />
            </Array>
          </mxGeometry>
        </mxCell>
        <mxCell id="2VQVNWMDebI-OC0_iPV0-241" style="edgeStyle=orthogonalEdgeStyle;rounded=0;orthogonalLoop=1;jettySize=auto;html=1;entryX=1;entryY=0.5;entryDx=0;entryDy=0;fontSize=15;endArrow=block;endFill=0;endSize=8;strokeWidth=1;dashed=1;" parent="1" source="2VQVNWMDebI-OC0_iPV0-181" target="2VQVNWMDebI-OC0_iPV0-228" edge="1">
          <mxGeometry relative="1" as="geometry">
            <Array as="points">
              <mxPoint x="3190" y="967" />
              <mxPoint x="3190" y="-230" />
            </Array>
          </mxGeometry>
        </mxCell>
        <mxCell id="2VQVNWMDebI-OC0_iPV0-242" style="edgeStyle=orthogonalEdgeStyle;rounded=0;orthogonalLoop=1;jettySize=auto;html=1;entryX=1;entryY=0.5;entryDx=0;entryDy=0;dashed=1;fontSize=15;endArrow=block;endFill=0;endSize=8;strokeWidth=1;" parent="1" source="2VQVNWMDebI-OC0_iPV0-168" target="2VQVNWMDebI-OC0_iPV0-228" edge="1">
          <mxGeometry relative="1" as="geometry">
            <Array as="points">
              <mxPoint x="1270" y="979" />
              <mxPoint x="1270" y="910" />
              <mxPoint x="3190" y="910" />
              <mxPoint x="3190" y="-230" />
            </Array>
          </mxGeometry>
        </mxCell>
        <mxCell id="PgaA5dWE2hBFqialOdvC-1" value="&lt;font style=&quot;font-size: 36px&quot;&gt;Common IT Procurement Processes&lt;/font&gt;" style="text;html=1;strokeColor=none;fillColor=none;align=center;verticalAlign=middle;whiteSpace=wrap;rounded=0;fontSize=32;rotation=-90;" parent="1" vertex="1">
          <mxGeometry x="1910" y="389.5" width="642.5" height="30" as="geometry" />
        </mxCell>
      </root>
    </mxGraphModel>
  </diagram>
  <diagram id="2o_G5eyRjLR6m_-bwUyk" name="Target Business Architecture">
    <mxGraphModel dx="3463" dy="2947" grid="1" gridSize="10" guides="1" tooltips="1" connect="1" arrows="1" fold="1" page="1" pageScale="1" pageWidth="827" pageHeight="1169" math="0" shadow="0">
      <root>
        <mxCell id="0" />
        <mxCell id="1" parent="0" />
        <mxCell id="4Kmhoz1Lq8iuSkru-7Y0-9" value="" style="html=1;outlineConnect=0;whiteSpace=wrap;fillColor=#ffff99;shape=mxgraph.archimate3.application;appType=func;archiType=rounded;container=0;" parent="1" vertex="1">
          <mxGeometry x="-70" y="-240" width="990" height="600" as="geometry" />
        </mxCell>
        <mxCell id="-Ero79iYHcZYVaGGVBdP-7" value="Employee" style="shape=umlActor;verticalLabelPosition=bottom;verticalAlign=top;html=1;outlineConnect=0;" parent="1" vertex="1">
          <mxGeometry x="550" y="-520" width="30" height="60" as="geometry" />
        </mxCell>
        <mxCell id="9kltHGWKHisSHC2a1klO-1" style="edgeStyle=orthogonalEdgeStyle;rounded=0;orthogonalLoop=1;jettySize=auto;html=1;fontSize=14;endArrow=open;endFill=0;endSize=11;" parent="1" source="6cCv-zb4L78r9DvCeI2A-1" target="-Ero79iYHcZYVaGGVBdP-7" edge="1">
          <mxGeometry relative="1" as="geometry" />
        </mxCell>
        <mxCell id="9kltHGWKHisSHC2a1klO-2" style="edgeStyle=orthogonalEdgeStyle;rounded=0;orthogonalLoop=1;jettySize=auto;html=1;fontSize=14;endArrow=classicThin;endFill=1;endSize=8;" parent="1" source="6cCv-zb4L78r9DvCeI2A-1" edge="1">
          <mxGeometry relative="1" as="geometry">
            <mxPoint x="140" y="-680" as="targetPoint" />
          </mxGeometry>
        </mxCell>
        <mxCell id="6cCv-zb4L78r9DvCeI2A-1" value="&lt;font style=&quot;font-size: 20px&quot;&gt;Initiate Procument request&lt;/font&gt;" style="shape=document;whiteSpace=wrap;html=1;boundedLbl=1;fontSize=36;strokeColor=#000000;fillColor=#FFFF00;" parent="1" vertex="1">
          <mxGeometry x="310" y="-730" width="180" height="100" as="geometry" />
        </mxCell>
        <mxCell id="WxOtCr6gWdZPrnxGbRdi-2" value="" style="group" parent="1" vertex="1" connectable="0">
          <mxGeometry x="-55" y="-754" width="220" height="340" as="geometry" />
        </mxCell>
        <mxCell id="AzEUirGXayemHVoskkGQ-1" value="" style="html=1;outlineConnect=0;whiteSpace=wrap;fillColor=#ffff99;shape=mxgraph.archimate3.application;appType=func;archiType=rounded;" parent="WxOtCr6gWdZPrnxGbRdi-2" vertex="1">
          <mxGeometry width="220" height="340" as="geometry" />
        </mxCell>
        <mxCell id="AzEUirGXayemHVoskkGQ-2" value="Originates Procurement Request" style="html=1;outlineConnect=0;whiteSpace=wrap;fillColor=#ffff99;shape=mxgraph.archimate3.application;appType=proc;archiType=rounded;" parent="WxOtCr6gWdZPrnxGbRdi-2" vertex="1">
          <mxGeometry x="20" y="40" width="180" height="75" as="geometry" />
        </mxCell>
        <mxCell id="AzEUirGXayemHVoskkGQ-3" value="Assess if purchase is for&lt;br&gt;a specific staff member or for department" style="html=1;outlineConnect=0;whiteSpace=wrap;fillColor=#ffff99;shape=mxgraph.archimate3.application;appType=proc;archiType=rounded;" parent="WxOtCr6gWdZPrnxGbRdi-2" vertex="1">
          <mxGeometry x="20" y="142.5" width="180" height="75" as="geometry" />
        </mxCell>
        <mxCell id="AzEUirGXayemHVoskkGQ-4" value="&lt;span style=&quot;font-family: &amp;#34;arialmt&amp;#34; ; font-size: 7pt&quot;&gt;Line Manager to&amp;nbsp;&lt;/span&gt;&lt;span style=&quot;font-family: &amp;#34;arialmt&amp;#34; ; font-size: 7pt&quot;&gt;decide if role is eligible&amp;nbsp;&lt;/span&gt;&lt;span style=&quot;font-family: &amp;#34;arialmt&amp;#34; ; font-size: 7pt&quot;&gt;for specialist&amp;nbsp;&lt;/span&gt;&lt;span style=&quot;font-family: &amp;#34;arialmt&amp;#34; ; font-size: 7pt&quot;&gt;consideration&lt;br&gt;&lt;/span&gt;" style="html=1;outlineConnect=0;whiteSpace=wrap;fillColor=#ffff99;shape=mxgraph.archimate3.application;appType=proc;archiType=rounded;" parent="WxOtCr6gWdZPrnxGbRdi-2" vertex="1">
          <mxGeometry x="20" y="240" width="180" height="75" as="geometry" />
        </mxCell>
        <mxCell id="WxOtCr6gWdZPrnxGbRdi-1" value="Departmental Assessment" style="text;html=1;strokeColor=none;fillColor=none;align=center;verticalAlign=middle;whiteSpace=wrap;rounded=0;" parent="WxOtCr6gWdZPrnxGbRdi-2" vertex="1">
          <mxGeometry x="30" width="150" height="30" as="geometry" />
        </mxCell>
        <mxCell id="iqCx426RshmX_c__QB7A-11" style="edgeStyle=orthogonalEdgeStyle;rounded=0;orthogonalLoop=1;jettySize=auto;html=1;entryX=1;entryY=0.25;entryDx=0;entryDy=0;endArrow=block;endFill=0;dashed=1;endSize=24;" parent="1" source="iqCx426RshmX_c__QB7A-1" target="iqCx426RshmX_c__QB7A-10" edge="1">
          <mxGeometry relative="1" as="geometry">
            <Array as="points">
              <mxPoint x="760" y="-335" />
            </Array>
          </mxGeometry>
        </mxCell>
        <mxCell id="zjY6yfEEwyqm3zEjhFww-1" style="edgeStyle=orthogonalEdgeStyle;rounded=0;orthogonalLoop=1;jettySize=auto;html=1;fontSize=14;endArrow=diamond;endFill=1;endSize=12;" parent="1" source="iqCx426RshmX_c__QB7A-1" edge="1">
          <mxGeometry relative="1" as="geometry">
            <mxPoint x="1030" y="37.5" as="targetPoint" />
          </mxGeometry>
        </mxCell>
        <mxCell id="iqCx426RshmX_c__QB7A-1" value="" style="html=1;outlineConnect=0;whiteSpace=wrap;fillColor=#ffff99;shape=mxgraph.archimate3.application;appType=func;archiType=rounded;" parent="1" vertex="1">
          <mxGeometry x="660" y="-195" width="200" height="465" as="geometry" />
        </mxCell>
        <mxCell id="iqCx426RshmX_c__QB7A-5" value="Assess Supplier" style="html=1;outlineConnect=0;whiteSpace=wrap;fillColor=#ffff99;shape=mxgraph.archimate3.application;appType=proc;archiType=rounded;" parent="1" vertex="1">
          <mxGeometry x="672.5" y="-160" width="180" height="90" as="geometry" />
        </mxCell>
        <mxCell id="iqCx426RshmX_c__QB7A-6" value="Receive goods / licence" style="html=1;outlineConnect=0;whiteSpace=wrap;fillColor=#ffff99;shape=mxgraph.archimate3.application;appType=proc;archiType=rounded;" parent="1" vertex="1">
          <mxGeometry x="670" y="170" width="180" height="90" as="geometry" />
        </mxCell>
        <mxCell id="iqCx426RshmX_c__QB7A-9" value="Procure" style="text;html=1;strokeColor=none;fillColor=none;align=center;verticalAlign=middle;whiteSpace=wrap;rounded=0;" parent="1" vertex="1">
          <mxGeometry x="687.5" y="-195" width="150" height="30" as="geometry" />
        </mxCell>
        <mxCell id="9kltHGWKHisSHC2a1klO-5" style="edgeStyle=orthogonalEdgeStyle;rounded=0;orthogonalLoop=1;jettySize=auto;html=1;entryX=0;entryY=0.3333333333333333;entryDx=0;entryDy=0;entryPerimeter=0;fontSize=14;endArrow=open;endFill=0;endSize=12;" parent="1" source="iqCx426RshmX_c__QB7A-10" target="-Ero79iYHcZYVaGGVBdP-7" edge="1">
          <mxGeometry relative="1" as="geometry">
            <Array as="points">
              <mxPoint x="400" y="-500" />
            </Array>
          </mxGeometry>
        </mxCell>
        <mxCell id="iqCx426RshmX_c__QB7A-10" value="&lt;font style=&quot;font-size: 14px&quot;&gt;Procurement completed notification&lt;/font&gt;" style="shape=document;whiteSpace=wrap;html=1;boundedLbl=1;fontSize=36;strokeColor=#000000;fillColor=#FFFF00;" parent="1" vertex="1">
          <mxGeometry x="310" y="-361" width="180" height="100" as="geometry" />
        </mxCell>
        <mxCell id="iqCx426RshmX_c__QB7A-12" value="Order via Third Party" style="html=1;outlineConnect=0;whiteSpace=wrap;fillColor=#ffff99;shape=mxgraph.archimate3.application;appType=proc;archiType=rounded;" parent="1" vertex="1">
          <mxGeometry x="672.5" y="-47.5" width="180" height="90" as="geometry" />
        </mxCell>
        <mxCell id="iqCx426RshmX_c__QB7A-13" value="Order via Supplier" style="html=1;outlineConnect=0;whiteSpace=wrap;fillColor=#ffff99;shape=mxgraph.archimate3.application;appType=proc;archiType=rounded;" parent="1" vertex="1">
          <mxGeometry x="670" y="60" width="180" height="90" as="geometry" />
        </mxCell>
        <mxCell id="iqCx426RshmX_c__QB7A-22" value="&lt;font style=&quot;font-size: 32px&quot;&gt;Procurement&lt;/font&gt;" style="text;html=1;strokeColor=none;fillColor=none;align=center;verticalAlign=middle;whiteSpace=wrap;rounded=0;" parent="1" vertex="1">
          <mxGeometry x="384" y="-240" width="60" height="30" as="geometry" />
        </mxCell>
        <mxCell id="iqCx426RshmX_c__QB7A-23" value="&lt;h1&gt;Issue List&lt;/h1&gt;&lt;p&gt;1. Longer procurement process (Bheki)&lt;br&gt;2. Resistance to change due to collapsing of roles in FXPlus (Tinashe)&lt;br&gt;3. Adapting to new process through changing documentation (Dewald)&lt;br&gt;4. The need to up-skill staff (Linda)&lt;br&gt;&lt;/p&gt;" style="text;html=1;strokeColor=none;fillColor=none;spacing=5;spacingTop=-20;whiteSpace=wrap;overflow=hidden;rounded=0;fontSize=32;" parent="1" vertex="1">
          <mxGeometry x="100" y="500" width="1020" height="330" as="geometry" />
        </mxCell>
        <mxCell id="Hk0U0WXkImM8BT9qj4iI-7" value="" style="group" parent="1" vertex="1" connectable="0">
          <mxGeometry x="275" y="-190" width="215" height="540" as="geometry" />
        </mxCell>
        <mxCell id="Hk0U0WXkImM8BT9qj4iI-1" value="" style="html=1;outlineConnect=0;whiteSpace=wrap;fillColor=#ffff99;shape=mxgraph.archimate3.application;appType=func;archiType=rounded;" parent="Hk0U0WXkImM8BT9qj4iI-7" vertex="1">
          <mxGeometry width="215" height="540" as="geometry" />
        </mxCell>
        <mxCell id="Hk0U0WXkImM8BT9qj4iI-2" value="&lt;span style=&quot;font-family: &amp;#34;arialmt&amp;#34; ; font-size: 7pt&quot;&gt;Gather Requirements&amp;nbsp;&lt;/span&gt;" style="html=1;outlineConnect=0;whiteSpace=wrap;fillColor=#ffff99;shape=mxgraph.archimate3.application;appType=proc;archiType=rounded;" parent="Hk0U0WXkImM8BT9qj4iI-7" vertex="1">
          <mxGeometry x="15" y="20.76923076923077" width="180" height="77.88461538461539" as="geometry" />
        </mxCell>
        <mxCell id="Hk0U0WXkImM8BT9qj4iI-3" value="&lt;span style=&quot;font-family: &amp;#34;arialmt&amp;#34; ; font-size: 7pt&quot;&gt;Source solution&lt;/span&gt;" style="html=1;outlineConnect=0;whiteSpace=wrap;fillColor=#ffff99;shape=mxgraph.archimate3.application;appType=proc;archiType=rounded;" parent="Hk0U0WXkImM8BT9qj4iI-7" vertex="1">
          <mxGeometry x="15" y="116.82692307692308" width="180" height="77.88461538461539" as="geometry" />
        </mxCell>
        <mxCell id="Hk0U0WXkImM8BT9qj4iI-4" value="&lt;span style=&quot;font-family: &amp;#34;arialmt&amp;#34; ; font-size: 7pt&quot;&gt;Source funding approval&lt;/span&gt;" style="html=1;outlineConnect=0;whiteSpace=wrap;fillColor=#ffff99;shape=mxgraph.archimate3.application;appType=proc;archiType=rounded;" parent="Hk0U0WXkImM8BT9qj4iI-7" vertex="1">
          <mxGeometry x="15" y="220.67307692307693" width="180" height="77.88461538461539" as="geometry" />
        </mxCell>
        <mxCell id="Hk0U0WXkImM8BT9qj4iI-5" value="&lt;span style=&quot;font-family: &amp;#34;arialmt&amp;#34; ; font-size: 7pt&quot;&gt;Include in following year budget&lt;/span&gt;" style="html=1;outlineConnect=0;whiteSpace=wrap;fillColor=#ffff99;shape=mxgraph.archimate3.application;appType=proc;archiType=rounded;" parent="Hk0U0WXkImM8BT9qj4iI-7" vertex="1">
          <mxGeometry x="15" y="324.5192307692308" width="180" height="77.88461538461539" as="geometry" />
        </mxCell>
        <mxCell id="Hk0U0WXkImM8BT9qj4iI-6" value="Budget holder approval" style="html=1;outlineConnect=0;whiteSpace=wrap;fillColor=#ffff99;shape=mxgraph.archimate3.application;appType=proc;archiType=rounded;" parent="Hk0U0WXkImM8BT9qj4iI-7" vertex="1">
          <mxGeometry x="20" y="425.76923076923083" width="180" height="93.46153846153847" as="geometry" />
        </mxCell>
        <mxCell id="guWDYQCRXRQ24qXpFn9M-3" value="Assess Budget" style="text;html=1;strokeColor=none;fillColor=none;align=center;verticalAlign=middle;whiteSpace=wrap;rounded=0;" parent="Hk0U0WXkImM8BT9qj4iI-7" vertex="1">
          <mxGeometry y="-8.384615384615385" width="210" height="31.153846153846157" as="geometry" />
        </mxCell>
        <mxCell id="sCJUT_0qZdQuyHSpLcAp-2" style="edgeStyle=orthogonalEdgeStyle;rounded=0;orthogonalLoop=1;jettySize=auto;html=1;exitX=0.995;exitY=0.326;exitDx=0;exitDy=0;exitPerimeter=0;" parent="1" source="Hk0U0WXkImM8BT9qj4iI-1" edge="1">
          <mxGeometry relative="1" as="geometry">
            <mxPoint x="660" y="-14" as="targetPoint" />
            <Array as="points">
              <mxPoint x="660" y="-14" />
            </Array>
          </mxGeometry>
        </mxCell>
        <mxCell id="9kltHGWKHisSHC2a1klO-3" style="edgeStyle=orthogonalEdgeStyle;rounded=0;orthogonalLoop=1;jettySize=auto;html=1;fontSize=14;endArrow=classicThin;endFill=1;endSize=8;exitX=0.5;exitY=1;exitDx=0;exitDy=0;exitPerimeter=0;" parent="1" source="AzEUirGXayemHVoskkGQ-1" target="iqCx426RshmX_c__QB7A-20" edge="1">
          <mxGeometry relative="1" as="geometry">
            <mxPoint x="55" y="-420" as="sourcePoint" />
          </mxGeometry>
        </mxCell>
        <mxCell id="9kltHGWKHisSHC2a1klO-4" style="edgeStyle=orthogonalEdgeStyle;rounded=0;orthogonalLoop=1;jettySize=auto;html=1;fontSize=14;endArrow=classicThin;endFill=1;endSize=8;" parent="1" source="iqCx426RshmX_c__QB7A-16" edge="1">
          <mxGeometry relative="1" as="geometry">
            <mxPoint x="270" y="15" as="targetPoint" />
          </mxGeometry>
        </mxCell>
        <mxCell id="iqCx426RshmX_c__QB7A-16" value="" style="html=1;outlineConnect=0;whiteSpace=wrap;fillColor=#ffff99;shape=mxgraph.archimate3.application;appType=func;archiType=rounded;" parent="1" vertex="1">
          <mxGeometry x="-50" y="-190" width="220" height="410" as="geometry" />
        </mxCell>
        <mxCell id="iqCx426RshmX_c__QB7A-20" value="Assess Procurement Type Requested" style="text;html=1;strokeColor=none;fillColor=none;align=center;verticalAlign=middle;whiteSpace=wrap;rounded=0;" parent="1" vertex="1">
          <mxGeometry x="-20" y="-190" width="150" height="31.76470588235294" as="geometry" />
        </mxCell>
        <mxCell id="4Kmhoz1Lq8iuSkru-7Y0-12" value="Software &amp;amp; Subscriptions" style="html=1;outlineConnect=0;whiteSpace=wrap;fillColor=#ffff99;shape=mxgraph.archimate3.application;appType=proc;archiType=rounded;" parent="1" vertex="1">
          <mxGeometry x="-25" y="29.996315789473712" width="170" height="82.82061919504642" as="geometry" />
        </mxCell>
        <mxCell id="4Kmhoz1Lq8iuSkru-7Y0-11" value="Hardware / Device Procurement" style="html=1;outlineConnect=0;whiteSpace=wrap;fillColor=#ffff99;shape=mxgraph.archimate3.application;appType=proc;archiType=rounded;" parent="1" vertex="1">
          <mxGeometry x="-20" y="-59.99504643962848" width="170" height="70.21671826625386" as="geometry" />
        </mxCell>
        <mxCell id="4Kmhoz1Lq8iuSkru-7Y0-14" value="Other Procurement Items" style="html=1;outlineConnect=0;whiteSpace=wrap;fillColor=#ffff99;shape=mxgraph.archimate3.application;appType=proc;archiType=rounded;" parent="1" vertex="1">
          <mxGeometry x="-25" y="130.0020510835913" width="170" height="82.82061919504642" as="geometry" />
        </mxCell>
        <mxCell id="9kltHGWKHisSHC2a1klO-6" value="Receive prcurement request" style="html=1;outlineConnect=0;whiteSpace=wrap;fillColor=#ffff99;shape=mxgraph.archimate3.application;appType=proc;archiType=rounded;" parent="1" vertex="1">
          <mxGeometry x="-20" y="-140.21504643962848" width="170" height="70.21671826625386" as="geometry" />
        </mxCell>
        <mxCell id="9kltHGWKHisSHC2a1klO-21" value="Procurement Request" style="swimlane;fontStyle=0;childLayout=stackLayout;horizontal=1;startSize=30;horizontalStack=0;resizeParent=1;resizeParentMax=0;resizeLast=0;collapsible=1;marginBottom=0;fontSize=14;fillColor=#FFFF00;" parent="1" vertex="1">
          <mxGeometry x="-350" y="-732" width="180" height="110" as="geometry" />
        </mxCell>
        <mxCell id="9kltHGWKHisSHC2a1klO-25" style="edgeStyle=orthogonalEdgeStyle;rounded=0;orthogonalLoop=1;jettySize=auto;html=1;entryX=1;entryY=0.5;entryDx=0;entryDy=0;fontSize=14;endArrow=diamond;endFill=1;endSize=12;" parent="1" source="AzEUirGXayemHVoskkGQ-2" target="9kltHGWKHisSHC2a1klO-21" edge="1">
          <mxGeometry relative="1" as="geometry" />
        </mxCell>
        <mxCell id="9kltHGWKHisSHC2a1klO-26" value="Procurement log" style="swimlane;fontStyle=0;childLayout=stackLayout;horizontal=1;startSize=30;horizontalStack=0;resizeParent=1;resizeParentMax=0;resizeLast=0;collapsible=1;marginBottom=0;fontSize=14;fillColor=#FFFF00;" parent="1" vertex="1">
          <mxGeometry x="1030" y="-57.5" width="180" height="110" as="geometry" />
        </mxCell>
      </root>
    </mxGraphModel>
  </diagram>
  <diagram id="lGrmPBNVMwwZlcsrOfcU" name="New Baseline">
    <mxGraphModel dx="4290" dy="3022" grid="1" gridSize="10" guides="1" tooltips="1" connect="1" arrows="1" fold="1" page="1" pageScale="1" pageWidth="827" pageHeight="1169" math="0" shadow="0">
      <root>
        <mxCell id="0" />
        <mxCell id="1" parent="0" />
        <mxCell id="QGW7R9Q1wVVROAhgocB1-3" style="rounded=0;orthogonalLoop=1;jettySize=auto;html=1;entryX=0.25;entryY=0;entryDx=0;entryDy=0;entryPerimeter=0;endArrow=oval;endFill=1;startArrow=oval;startFill=1;" parent="1" target="QGW7R9Q1wVVROAhgocB1-1" edge="1">
          <mxGeometry relative="1" as="geometry">
            <mxPoint x="-1040" y="-290" as="sourcePoint" />
          </mxGeometry>
        </mxCell>
        <mxCell id="QGW7R9Q1wVVROAhgocB1-5" style="edgeStyle=none;rounded=0;orthogonalLoop=1;jettySize=auto;html=1;startArrow=oval;startFill=1;endArrow=circle;endFill=0;endSize=12;exitX=1;exitY=0.3333333333333333;exitDx=0;exitDy=0;exitPerimeter=0;" parent="1" edge="1">
          <mxGeometry relative="1" as="geometry">
            <mxPoint x="-900" y="-322" as="targetPoint" />
            <mxPoint x="-1031" y="-322" as="sourcePoint" />
          </mxGeometry>
        </mxCell>
        <mxCell id="U1XcbnVtcfSXnthjC3mU-1" value="Medico Employee" style="shape=umlActor;verticalLabelPosition=bottom;verticalAlign=top;html=1;outlineConnect=0;strokeWidth=1;" parent="1" vertex="1">
          <mxGeometry x="-1050" y="-340" width="19" height="30" as="geometry" />
        </mxCell>
        <mxCell id="QGW7R9Q1wVVROAhgocB1-4" style="edgeStyle=none;rounded=0;orthogonalLoop=1;jettySize=auto;html=1;startArrow=oval;startFill=1;endArrow=circle;endFill=0;endSize=12;" parent="1" edge="1">
          <mxGeometry relative="1" as="geometry">
            <mxPoint x="-910" y="-321" as="targetPoint" />
            <mxPoint x="-790" y="-321" as="sourcePoint" />
          </mxGeometry>
        </mxCell>
        <mxCell id="U1XcbnVtcfSXnthjC3mU-3" value="FX Plus Employee" style="shape=umlActor;verticalLabelPosition=bottom;verticalAlign=top;html=1;outlineConnect=0;" parent="1" vertex="1">
          <mxGeometry x="-790" y="-340" width="21" height="40" as="geometry" />
        </mxCell>
        <mxCell id="QGW7R9Q1wVVROAhgocB1-1" value="FX Plus" style="html=1;outlineConnect=0;whiteSpace=wrap;fillColor=#ffff99;shape=mxgraph.archimate3.application;appType=actor;archiType=square;" parent="1" vertex="1">
          <mxGeometry x="-955" y="-80" width="150" height="75" as="geometry" />
        </mxCell>
        <mxCell id="13-255nFWl9pIIawfT24-2" style="edgeStyle=none;rounded=0;orthogonalLoop=1;jettySize=auto;html=1;entryX=0.5;entryY=1;entryDx=0;entryDy=0;entryPerimeter=0;startArrow=none;startFill=0;endArrow=open;endFill=0;endSize=12;" parent="1" source="13-255nFWl9pIIawfT24-1" target="QGW7R9Q1wVVROAhgocB1-1" edge="1">
          <mxGeometry relative="1" as="geometry" />
        </mxCell>
        <mxCell id="TTH7sblJOYHqclslnIf9-61" style="edgeStyle=orthogonalEdgeStyle;rounded=0;jumpStyle=arc;jumpSize=28;orthogonalLoop=1;jettySize=auto;html=1;fontSize=12;startArrow=none;startFill=0;endArrow=block;endFill=0;startSize=9;endSize=12;targetPerimeterSpacing=6;strokeWidth=2;dashed=1;" edge="1" parent="1" source="13-255nFWl9pIIawfT24-1" target="384_SKbXH8va6ICWdZGR-1">
          <mxGeometry relative="1" as="geometry" />
        </mxCell>
        <mxCell id="13-255nFWl9pIIawfT24-1" value="&lt;font style=&quot;font-size: 16px&quot;&gt;Procument request&lt;/font&gt;" style="shape=document;whiteSpace=wrap;html=1;boundedLbl=1;fontSize=36;strokeColor=#000000;fillColor=#FFFF99;" parent="1" vertex="1">
          <mxGeometry x="-955" y="240" width="150" height="70" as="geometry" />
        </mxCell>
        <mxCell id="Mf4NN4WEwdlUD9Ftzclx-2" value="" style="html=1;outlineConnect=0;whiteSpace=wrap;fillColor=#ffff99;shape=mxgraph.archimate3.application;appType=func;archiType=rounded;" parent="1" vertex="1">
          <mxGeometry x="916" y="508.5" width="220" height="251.5" as="geometry" />
        </mxCell>
        <mxCell id="Mf4NN4WEwdlUD9Ftzclx-4" value="" style="html=1;outlineConnect=0;whiteSpace=wrap;fillColor=#ffff99;shape=mxgraph.archimate3.application;appType=func;archiType=rounded;" parent="1" vertex="1">
          <mxGeometry x="1170" y="501.25" width="220" height="318.75" as="geometry" />
        </mxCell>
        <mxCell id="jxchu_NYBGTfkGTTKYU_-1" value="&lt;b&gt;ICT Service Request&lt;/b&gt;" style="text;html=1;strokeColor=none;fillColor=none;align=center;verticalAlign=middle;whiteSpace=wrap;rounded=0;" parent="1" vertex="1">
          <mxGeometry x="931" y="513" width="170" height="30" as="geometry" />
        </mxCell>
        <mxCell id="alFZZm2k_4Cd0gBak7bV-1" value="&lt;b&gt;ICT Consumables Request&lt;/b&gt;" style="text;html=1;strokeColor=none;fillColor=none;align=center;verticalAlign=middle;whiteSpace=wrap;rounded=0;" parent="1" vertex="1">
          <mxGeometry x="1205" y="501.25" width="170" height="30" as="geometry" />
        </mxCell>
        <mxCell id="TTH7sblJOYHqclslnIf9-202" style="edgeStyle=orthogonalEdgeStyle;rounded=0;jumpStyle=arc;jumpSize=28;orthogonalLoop=1;jettySize=auto;html=1;entryX=0.5;entryY=0;entryDx=0;entryDy=0;entryPerimeter=0;fontSize=12;startArrow=none;startFill=0;endArrow=classicThin;endFill=1;startSize=8;endSize=9;targetPerimeterSpacing=18;strokeWidth=1;" edge="1" parent="1" source="alFZZm2k_4Cd0gBak7bV-2" target="TTH7sblJOYHqclslnIf9-199">
          <mxGeometry relative="1" as="geometry" />
        </mxCell>
        <mxCell id="alFZZm2k_4Cd0gBak7bV-2" value="Assess Bulk Purchase Arrangement" style="html=1;outlineConnect=0;whiteSpace=wrap;fillColor=#ffff99;shape=mxgraph.archimate3.application;appType=proc;archiType=rounded;" parent="1" vertex="1">
          <mxGeometry x="1190.75" y="689.37" width="170" height="36.25" as="geometry" />
        </mxCell>
        <mxCell id="6fXcm6iijUz2EtuTbK9x-3" style="rounded=0;jumpStyle=arc;jumpSize=19;orthogonalLoop=1;jettySize=auto;html=1;fontSize=16;startArrow=oval;startFill=1;endArrow=oval;endFill=1;endSize=8;strokeWidth=1;targetPerimeterSpacing=8;" parent="1" source="YufO3D9QiGUvIhBIXzUx-1" edge="1">
          <mxGeometry relative="1" as="geometry">
            <mxPoint x="-120" y="-40" as="targetPoint" />
          </mxGeometry>
        </mxCell>
        <mxCell id="lg4VMKvgGD_38bYyhGN5-24" style="edgeStyle=orthogonalEdgeStyle;rounded=0;jumpStyle=arc;jumpSize=19;orthogonalLoop=1;jettySize=auto;html=1;dashed=1;fontSize=16;startArrow=none;startFill=0;endArrow=classicThin;endFill=1;endSize=12;strokeWidth=1;" parent="1" edge="1" target="Mf4NN4WEwdlUD9Ftzclx-2">
          <mxGeometry relative="1" as="geometry">
            <mxPoint x="1090" y="795.62" as="targetPoint" />
            <mxPoint x="520" y="1294" as="sourcePoint" />
            <Array as="points">
              <mxPoint x="520" y="1290" />
              <mxPoint x="1090" y="1290" />
            </Array>
          </mxGeometry>
        </mxCell>
        <mxCell id="TTH7sblJOYHqclslnIf9-62" style="edgeStyle=orthogonalEdgeStyle;rounded=0;jumpStyle=arc;jumpSize=28;orthogonalLoop=1;jettySize=auto;html=1;entryX=0.25;entryY=1;entryDx=0;entryDy=0;entryPerimeter=0;dashed=1;fontSize=12;startArrow=none;startFill=0;endArrow=classicThin;endFill=1;startSize=9;endSize=12;targetPerimeterSpacing=6;strokeWidth=1;" edge="1" parent="1" source="384_SKbXH8va6ICWdZGR-1" target="TTH7sblJOYHqclslnIf9-27">
          <mxGeometry relative="1" as="geometry" />
        </mxCell>
        <mxCell id="TTH7sblJOYHqclslnIf9-162" style="edgeStyle=orthogonalEdgeStyle;rounded=0;jumpStyle=arc;jumpSize=28;orthogonalLoop=1;jettySize=auto;html=1;dashed=1;fontSize=12;startArrow=none;startFill=0;endArrow=none;endFill=0;startSize=8;endSize=9;targetPerimeterSpacing=18;strokeWidth=1;" edge="1" parent="1" source="384_SKbXH8va6ICWdZGR-1">
          <mxGeometry relative="1" as="geometry">
            <mxPoint x="-190" y="1039.9999999999995" as="targetPoint" />
            <Array as="points">
              <mxPoint x="-880" y="1170" />
              <mxPoint x="-190" y="1170" />
            </Array>
          </mxGeometry>
        </mxCell>
        <mxCell id="TTH7sblJOYHqclslnIf9-163" style="edgeStyle=orthogonalEdgeStyle;rounded=0;jumpStyle=arc;jumpSize=28;orthogonalLoop=1;jettySize=auto;html=1;dashed=1;fontSize=12;startArrow=none;startFill=0;endArrow=none;endFill=0;startSize=8;endSize=9;targetPerimeterSpacing=18;strokeWidth=1;" edge="1" parent="1" source="384_SKbXH8va6ICWdZGR-1">
          <mxGeometry relative="1" as="geometry">
            <mxPoint x="322.1052631578943" y="1079.9999999999995" as="targetPoint" />
            <Array as="points">
              <mxPoint x="-880" y="1170" />
              <mxPoint x="330" y="1170" />
              <mxPoint x="330" y="1080" />
            </Array>
          </mxGeometry>
        </mxCell>
        <mxCell id="TTH7sblJOYHqclslnIf9-189" style="edgeStyle=orthogonalEdgeStyle;rounded=0;jumpStyle=arc;jumpSize=28;orthogonalLoop=1;jettySize=auto;html=1;dashed=1;fontSize=12;startArrow=none;startFill=0;endArrow=none;endFill=0;startSize=8;endSize=9;targetPerimeterSpacing=18;strokeWidth=1;" edge="1" parent="1" source="384_SKbXH8va6ICWdZGR-1">
          <mxGeometry relative="1" as="geometry">
            <mxPoint x="521" y="1010" as="targetPoint" />
            <Array as="points">
              <mxPoint x="-880" y="1290" />
              <mxPoint x="521" y="1290" />
            </Array>
          </mxGeometry>
        </mxCell>
        <mxCell id="TTH7sblJOYHqclslnIf9-208" style="rounded=0;jumpStyle=arc;jumpSize=28;orthogonalLoop=1;jettySize=auto;html=1;fontSize=12;startArrow=none;startFill=0;endArrow=none;endFill=0;startSize=8;endSize=9;targetPerimeterSpacing=18;strokeWidth=1;exitX=0.5;exitY=1;exitDx=0;exitDy=0;edgeStyle=orthogonalEdgeStyle;dashed=1;" edge="1" parent="1" source="384_SKbXH8va6ICWdZGR-1">
          <mxGeometry relative="1" as="geometry">
            <mxPoint x="1240" y="940" as="targetPoint" />
            <Array as="points">
              <mxPoint x="-880" y="1290" />
              <mxPoint x="1240" y="1290" />
            </Array>
          </mxGeometry>
        </mxCell>
        <mxCell id="384_SKbXH8va6ICWdZGR-1" value="Procument request" style="swimlane;fontSize=16;strokeColor=#000000;fillColor=#FFFF00;fontStyle=0" parent="1" vertex="1">
          <mxGeometry x="-960" y="949" width="160" height="130" as="geometry" />
        </mxCell>
        <mxCell id="Mf4NN4WEwdlUD9Ftzclx-16" value="" style="html=1;outlineConnect=0;whiteSpace=wrap;fillColor=#ffff99;shape=mxgraph.archimate3.application;appType=func;archiType=rounded;" parent="1" vertex="1">
          <mxGeometry x="477" y="513" width="350" height="347" as="geometry" />
        </mxCell>
        <mxCell id="Mf4NN4WEwdlUD9Ftzclx-17" value="&lt;b&gt;Software Licence &amp;amp; Subscription&lt;/b&gt;" style="text;html=1;strokeColor=none;fillColor=none;align=center;verticalAlign=middle;whiteSpace=wrap;rounded=0;" parent="1" vertex="1">
          <mxGeometry x="510" y="516" width="270" height="30" as="geometry" />
        </mxCell>
        <mxCell id="TTH7sblJOYHqclslnIf9-137" style="edgeStyle=orthogonalEdgeStyle;rounded=0;jumpStyle=arc;jumpSize=28;orthogonalLoop=1;jettySize=auto;html=1;fontSize=12;startArrow=none;startFill=0;endArrow=none;endFill=0;startSize=8;endSize=9;targetPerimeterSpacing=18;strokeWidth=1;" edge="1" parent="1" source="Mf4NN4WEwdlUD9Ftzclx-19">
          <mxGeometry relative="1" as="geometry">
            <mxPoint x="870" y="690" as="targetPoint" />
            <Array as="points">
              <mxPoint x="870" y="805" />
              <mxPoint x="870" y="720" />
            </Array>
          </mxGeometry>
        </mxCell>
        <mxCell id="Mf4NN4WEwdlUD9Ftzclx-19" value="Assess for additional license&amp;nbsp;&lt;br&gt;purchase" style="html=1;outlineConnect=0;whiteSpace=wrap;fillColor=#ffff99;shape=mxgraph.archimate3.application;appType=proc;archiType=rounded;" parent="1" vertex="1">
          <mxGeometry x="617" y="780.87" width="170" height="48.75" as="geometry" />
        </mxCell>
        <mxCell id="FuSfqS7fJ9mYyMeMx6qj-6" style="rounded=0;orthogonalLoop=1;jettySize=auto;html=1;endArrow=classic;endFill=1;edgeStyle=orthogonalEdgeStyle;entryX=0;entryY=0.5;entryDx=0;entryDy=0;entryPerimeter=0;" edge="1" parent="1" source="bYiO1aN39VMfyDqgWt_7-3" target="Mf4NN4WEwdlUD9Ftzclx-19">
          <mxGeometry relative="1" as="geometry">
            <Array as="points">
              <mxPoint x="537" y="805" />
            </Array>
          </mxGeometry>
        </mxCell>
        <mxCell id="bYiO1aN39VMfyDqgWt_7-3" value="Assess licence contract agreements" style="html=1;outlineConnect=0;whiteSpace=wrap;fillColor=#ffff99;shape=mxgraph.archimate3.application;appType=proc;archiType=rounded;" parent="1" vertex="1">
          <mxGeometry x="487" y="649.87" width="120" height="55.25" as="geometry" />
        </mxCell>
        <mxCell id="bYiO1aN39VMfyDqgWt_7-4" style="edgeStyle=none;rounded=0;orthogonalLoop=1;jettySize=auto;html=1;entryX=0.5;entryY=1;entryDx=0;entryDy=0;entryPerimeter=0;fontSize=16;startArrow=none;startFill=0;endArrow=block;endFill=0;endSize=12;dashed=1;" parent="1" target="bYiO1aN39VMfyDqgWt_7-5" edge="1">
          <mxGeometry relative="1" as="geometry">
            <mxPoint x="670" y="510" as="sourcePoint" />
          </mxGeometry>
        </mxCell>
        <mxCell id="6fXcm6iijUz2EtuTbK9x-4" style="edgeStyle=none;rounded=0;jumpStyle=arc;jumpSize=19;orthogonalLoop=1;jettySize=auto;html=1;fontSize=16;startArrow=oval;startFill=1;endArrow=oval;endFill=1;endSize=8;targetPerimeterSpacing=8;strokeWidth=1;" parent="1" source="bYiO1aN39VMfyDqgWt_7-5" edge="1">
          <mxGeometry relative="1" as="geometry">
            <mxPoint x="670" y="-40" as="targetPoint" />
          </mxGeometry>
        </mxCell>
        <mxCell id="bYiO1aN39VMfyDqgWt_7-5" value="&lt;div&gt;&lt;span style=&quot;font-size: 16px&quot;&gt;Software Licence &amp;amp; Subscription Service&lt;/span&gt;&lt;/div&gt;" style="strokeWidth=2;html=1;shape=mxgraph.flowchart.terminator;whiteSpace=wrap;fontSize=36;fillColor=#FFFF99;strokeColor=#000000;align=center;" parent="1" vertex="1">
          <mxGeometry x="563.5" y="78" width="212.5" height="90" as="geometry" />
        </mxCell>
        <mxCell id="bYiO1aN39VMfyDqgWt_7-8" style="edgeStyle=none;rounded=0;orthogonalLoop=1;jettySize=auto;html=1;entryX=0.5;entryY=1;entryDx=0;entryDy=0;entryPerimeter=0;fontSize=16;startArrow=none;startFill=0;endArrow=block;endFill=0;endSize=12;dashed=1;exitX=0.5;exitY=0;exitDx=0;exitDy=0;" parent="1" edge="1" target="bYiO1aN39VMfyDqgWt_7-9" source="jxchu_NYBGTfkGTTKYU_-1">
          <mxGeometry relative="1" as="geometry">
            <mxPoint x="989.5" y="318" as="sourcePoint" />
            <mxPoint x="989.5" y="168" as="targetPoint" />
          </mxGeometry>
        </mxCell>
        <mxCell id="6fXcm6iijUz2EtuTbK9x-6" style="edgeStyle=none;rounded=0;jumpStyle=none;jumpSize=19;orthogonalLoop=1;jettySize=auto;html=1;fontSize=16;startArrow=oval;startFill=1;endArrow=oval;endFill=1;endSize=8;targetPerimeterSpacing=8;strokeWidth=1;" parent="1" source="bYiO1aN39VMfyDqgWt_7-9" edge="1">
          <mxGeometry relative="1" as="geometry">
            <mxPoint x="1012" y="-40" as="targetPoint" />
          </mxGeometry>
        </mxCell>
        <mxCell id="bYiO1aN39VMfyDqgWt_7-9" value="&lt;div&gt;&lt;span style=&quot;font-size: 16px&quot;&gt;ICT Service Request &lt;br&gt;Service&lt;/span&gt;&lt;/div&gt;" style="strokeWidth=2;html=1;shape=mxgraph.flowchart.terminator;whiteSpace=wrap;fontSize=36;fillColor=#FFFF99;strokeColor=#000000;align=center;" parent="1" vertex="1">
          <mxGeometry x="905.75" y="80" width="212.5" height="90" as="geometry" />
        </mxCell>
        <mxCell id="bYiO1aN39VMfyDqgWt_7-12" style="edgeStyle=none;rounded=0;orthogonalLoop=1;jettySize=auto;html=1;entryX=0.423;entryY=0.989;entryDx=0;entryDy=0;entryPerimeter=0;fontSize=16;startArrow=none;startFill=0;endArrow=block;endFill=0;endSize=12;dashed=1;exitX=0.382;exitY=-0.042;exitDx=0;exitDy=0;exitPerimeter=0;" parent="1" edge="1" target="bYiO1aN39VMfyDqgWt_7-13" source="alFZZm2k_4Cd0gBak7bV-1">
          <mxGeometry relative="1" as="geometry">
            <mxPoint x="1260.807114228457" y="310" as="sourcePoint" />
            <mxPoint x="1260" y="170" as="targetPoint" />
          </mxGeometry>
        </mxCell>
        <mxCell id="6fXcm6iijUz2EtuTbK9x-7" style="edgeStyle=none;rounded=0;jumpStyle=none;jumpSize=19;orthogonalLoop=1;jettySize=auto;html=1;fontSize=16;startArrow=oval;startFill=1;endArrow=oval;endFill=1;endSize=8;targetPerimeterSpacing=8;strokeWidth=1;" parent="1" source="bYiO1aN39VMfyDqgWt_7-13" edge="1">
          <mxGeometry relative="1" as="geometry">
            <mxPoint x="1286" y="-40" as="targetPoint" />
          </mxGeometry>
        </mxCell>
        <mxCell id="bYiO1aN39VMfyDqgWt_7-13" value="&lt;div&gt;&lt;span style=&quot;font-size: 16px&quot;&gt;ICT Consumables Request Service&lt;/span&gt;&lt;/div&gt;" style="strokeWidth=2;html=1;shape=mxgraph.flowchart.terminator;whiteSpace=wrap;fontSize=36;fillColor=#FFFF99;strokeColor=#000000;align=center;" parent="1" vertex="1">
          <mxGeometry x="1179.75" y="80" width="212.5" height="90" as="geometry" />
        </mxCell>
        <mxCell id="bYiO1aN39VMfyDqgWt_7-14" style="edgeStyle=none;rounded=0;orthogonalLoop=1;jettySize=auto;html=1;entryX=0.5;entryY=1;entryDx=0;entryDy=0;entryPerimeter=0;fontSize=16;startArrow=none;startFill=0;endArrow=block;endFill=0;endSize=12;dashed=1;" parent="1" target="bYiO1aN39VMfyDqgWt_7-15" edge="1" source="F4ZunI-th2Frl8_olumg-1">
          <mxGeometry relative="1" as="geometry">
            <mxPoint x="1570" y="310" as="sourcePoint" />
            <Array as="points" />
          </mxGeometry>
        </mxCell>
        <mxCell id="6fXcm6iijUz2EtuTbK9x-8" style="edgeStyle=none;rounded=0;jumpStyle=arc;jumpSize=19;orthogonalLoop=1;jettySize=auto;html=1;fontSize=16;startArrow=oval;startFill=1;endArrow=oval;endFill=1;endSize=8;targetPerimeterSpacing=8;strokeWidth=1;" parent="1" source="bYiO1aN39VMfyDqgWt_7-15" edge="1">
          <mxGeometry relative="1" as="geometry">
            <mxPoint x="1603" y="-40" as="targetPoint" />
          </mxGeometry>
        </mxCell>
        <mxCell id="bYiO1aN39VMfyDqgWt_7-15" value="&lt;div&gt;&lt;span style=&quot;font-size: 16px&quot;&gt;Other ICT Purchase Service&lt;/span&gt;&lt;/div&gt;" style="strokeWidth=2;html=1;shape=mxgraph.flowchart.terminator;whiteSpace=wrap;fontSize=36;fillColor=#FFFF99;strokeColor=#000000;align=center;" parent="1" vertex="1">
          <mxGeometry x="1496.75" y="70" width="212.5" height="90" as="geometry" />
        </mxCell>
        <mxCell id="lg4VMKvgGD_38bYyhGN5-16" style="edgeStyle=orthogonalEdgeStyle;rounded=0;orthogonalLoop=1;jettySize=auto;html=1;dashed=1;fontSize=16;startArrow=none;startFill=0;endArrow=classicThin;endFill=1;endSize=12;jumpStyle=arc;jumpSize=19;" parent="1" source="lg4VMKvgGD_38bYyhGN5-1" target="Mf4NN4WEwdlUD9Ftzclx-2" edge="1">
          <mxGeometry relative="1" as="geometry">
            <Array as="points">
              <mxPoint x="960" y="980" />
            </Array>
          </mxGeometry>
        </mxCell>
        <mxCell id="lg4VMKvgGD_38bYyhGN5-22" style="edgeStyle=orthogonalEdgeStyle;rounded=0;jumpStyle=arc;jumpSize=19;orthogonalLoop=1;jettySize=auto;html=1;dashed=1;fontSize=16;startArrow=none;startFill=0;endArrow=classicThin;endFill=1;endSize=12;strokeWidth=1;" parent="1" source="lg4VMKvgGD_38bYyhGN5-1" edge="1">
          <mxGeometry relative="1" as="geometry">
            <mxPoint x="600" y="860" as="targetPoint" />
            <Array as="points">
              <mxPoint x="600" y="980" />
            </Array>
          </mxGeometry>
        </mxCell>
        <mxCell id="lg4VMKvgGD_38bYyhGN5-33" style="edgeStyle=orthogonalEdgeStyle;rounded=0;jumpStyle=arc;jumpSize=19;orthogonalLoop=1;jettySize=auto;html=1;dashed=1;fontSize=16;startArrow=none;startFill=0;endArrow=classicThin;endFill=1;endSize=12;strokeWidth=1;entryX=0.182;entryY=1;entryDx=0;entryDy=0;entryPerimeter=0;" parent="1" source="lg4VMKvgGD_38bYyhGN5-1" target="Mf4NN4WEwdlUD9Ftzclx-4" edge="1">
          <mxGeometry relative="1" as="geometry">
            <mxPoint x="1200" y="830" as="targetPoint" />
          </mxGeometry>
        </mxCell>
        <mxCell id="lg4VMKvgGD_38bYyhGN5-1" value="Third Party" style="swimlane;fontSize=16;strokeColor=#000000;fillColor=#FFFF00;fontStyle=0" parent="1" vertex="1">
          <mxGeometry x="676" y="940" width="100" height="80" as="geometry" />
        </mxCell>
        <mxCell id="lg4VMKvgGD_38bYyhGN5-18" style="edgeStyle=orthogonalEdgeStyle;rounded=0;orthogonalLoop=1;jettySize=auto;html=1;dashed=1;fontSize=16;startArrow=none;startFill=0;endArrow=classicThin;endFill=1;endSize=12;jumpStyle=arc;jumpSize=19;exitX=1;exitY=0.5;exitDx=0;exitDy=0;" parent="1" source="lg4VMKvgGD_38bYyhGN5-3" target="Mf4NN4WEwdlUD9Ftzclx-2" edge="1">
          <mxGeometry relative="1" as="geometry">
            <mxPoint x="800" y="1075" as="sourcePoint" />
            <mxPoint x="1012" y="768" as="targetPoint" />
            <Array as="points">
              <mxPoint x="1012" y="1075" />
            </Array>
          </mxGeometry>
        </mxCell>
        <mxCell id="lg4VMKvgGD_38bYyhGN5-20" style="edgeStyle=orthogonalEdgeStyle;rounded=0;jumpStyle=arc;jumpSize=19;orthogonalLoop=1;jettySize=auto;html=1;dashed=1;fontSize=16;startArrow=none;startFill=0;endArrow=classicThin;endFill=1;endSize=12;strokeWidth=1;" parent="1" source="lg4VMKvgGD_38bYyhGN5-3" target="Mf4NN4WEwdlUD9Ftzclx-16" edge="1">
          <mxGeometry relative="1" as="geometry">
            <Array as="points">
              <mxPoint x="560" y="1075" />
            </Array>
          </mxGeometry>
        </mxCell>
        <mxCell id="lg4VMKvgGD_38bYyhGN5-34" style="edgeStyle=orthogonalEdgeStyle;rounded=0;jumpStyle=arc;jumpSize=19;orthogonalLoop=1;jettySize=auto;html=1;dashed=1;fontSize=16;startArrow=none;startFill=0;endArrow=classicThin;endFill=1;endSize=12;strokeWidth=1;" parent="1" source="lg4VMKvgGD_38bYyhGN5-3" edge="1">
          <mxGeometry relative="1" as="geometry">
            <mxPoint x="1240" y="820" as="targetPoint" />
          </mxGeometry>
        </mxCell>
        <mxCell id="lg4VMKvgGD_38bYyhGN5-3" value="Agreements" style="swimlane;fontSize=16;strokeColor=#000000;fillColor=#FFFF00;fontStyle=0;startSize=20;" parent="1" vertex="1">
          <mxGeometry x="680" y="1035" width="100" height="80" as="geometry" />
        </mxCell>
        <mxCell id="lg4VMKvgGD_38bYyhGN5-26" style="edgeStyle=orthogonalEdgeStyle;rounded=0;jumpStyle=arc;jumpSize=19;orthogonalLoop=1;jettySize=auto;html=1;entryX=1;entryY=0;entryDx=0;entryDy=0;dashed=1;fontSize=16;startArrow=none;startFill=0;endArrow=block;endFill=0;endSize=12;strokeWidth=2;" parent="1" source="lg4VMKvgGD_38bYyhGN5-8" target="lg4VMKvgGD_38bYyhGN5-1" edge="1">
          <mxGeometry relative="1" as="geometry">
            <Array as="points">
              <mxPoint x="900" y="230" />
              <mxPoint x="900" y="940" />
            </Array>
          </mxGeometry>
        </mxCell>
        <mxCell id="lg4VMKvgGD_38bYyhGN5-8" value="&lt;font style=&quot;font-size: 16px&quot;&gt;Contracts&lt;/font&gt;" style="shape=document;whiteSpace=wrap;html=1;boundedLbl=1;fontSize=36;strokeColor=#000000;fillColor=#FFFF99;" parent="1" vertex="1">
          <mxGeometry x="490" y="204" width="150" height="70" as="geometry" />
        </mxCell>
        <mxCell id="TTH7sblJOYHqclslnIf9-204" style="edgeStyle=orthogonalEdgeStyle;rounded=0;jumpStyle=arc;jumpSize=28;orthogonalLoop=1;jettySize=auto;html=1;fontSize=12;startArrow=none;startFill=0;endArrow=none;endFill=0;startSize=8;endSize=9;targetPerimeterSpacing=18;strokeWidth=1;" edge="1" parent="1" source="lg4VMKvgGD_38bYyhGN5-31">
          <mxGeometry relative="1" as="geometry">
            <mxPoint x="1440" y="320" as="targetPoint" />
            <Array as="points">
              <mxPoint x="1450" y="634" />
              <mxPoint x="1450" y="320" />
            </Array>
          </mxGeometry>
        </mxCell>
        <mxCell id="lg4VMKvgGD_38bYyhGN5-31" value="Assess existing supplier list" style="html=1;outlineConnect=0;whiteSpace=wrap;fillColor=#ffff99;shape=mxgraph.archimate3.application;appType=proc;archiType=rounded;" parent="1" vertex="1">
          <mxGeometry x="1190.75" y="614.25" width="170" height="40" as="geometry" />
        </mxCell>
        <mxCell id="lg4VMKvgGD_38bYyhGN5-38" style="edgeStyle=orthogonalEdgeStyle;rounded=0;jumpStyle=arc;jumpSize=19;orthogonalLoop=1;jettySize=auto;html=1;entryX=0.919;entryY=0;entryDx=0;entryDy=0;entryPerimeter=0;dashed=1;fontSize=16;startArrow=none;startFill=0;endArrow=block;endFill=0;endSize=12;strokeWidth=2;" parent="1" source="lg4VMKvgGD_38bYyhGN5-32" target="lg4VMKvgGD_38bYyhGN5-36" edge="1">
          <mxGeometry relative="1" as="geometry" />
        </mxCell>
        <mxCell id="lg4VMKvgGD_38bYyhGN5-32" value="&lt;font style=&quot;font-size: 16px&quot;&gt;Standard Item list&lt;/font&gt;" style="shape=document;whiteSpace=wrap;html=1;boundedLbl=1;fontSize=36;strokeColor=#000000;fillColor=#FFFF99;" parent="1" vertex="1">
          <mxGeometry x="1072.5" y="208" width="150" height="70" as="geometry" />
        </mxCell>
        <mxCell id="lg4VMKvgGD_38bYyhGN5-37" style="edgeStyle=orthogonalEdgeStyle;rounded=0;jumpStyle=arc;jumpSize=19;orthogonalLoop=1;jettySize=auto;html=1;dashed=1;fontSize=16;startArrow=none;startFill=0;endArrow=classicThin;endFill=1;endSize=12;strokeWidth=1;" parent="1" source="lg4VMKvgGD_38bYyhGN5-36" edge="1">
          <mxGeometry relative="1" as="geometry">
            <mxPoint x="1355" y="820" as="targetPoint" />
          </mxGeometry>
        </mxCell>
        <mxCell id="lg4VMKvgGD_38bYyhGN5-36" value="Standard Items" style="swimlane;fontSize=16;strokeColor=#000000;fillColor=#FFFF00;fontStyle=0;startSize=30;" parent="1" vertex="1">
          <mxGeometry x="1290" y="1010" width="130" height="80" as="geometry" />
        </mxCell>
        <mxCell id="TTH7sblJOYHqclslnIf9-194" style="edgeStyle=orthogonalEdgeStyle;rounded=0;jumpStyle=arc;jumpSize=28;orthogonalLoop=1;jettySize=auto;html=1;fontSize=12;startArrow=none;startFill=0;endArrow=none;endFill=0;startSize=8;endSize=9;targetPerimeterSpacing=18;strokeWidth=1;" edge="1" parent="1" source="lg4VMKvgGD_38bYyhGN5-39">
          <mxGeometry relative="1" as="geometry">
            <mxPoint x="1150" y="320" as="targetPoint" />
          </mxGeometry>
        </mxCell>
        <mxCell id="TTH7sblJOYHqclslnIf9-198" style="edgeStyle=orthogonalEdgeStyle;rounded=0;jumpStyle=arc;jumpSize=28;orthogonalLoop=1;jettySize=auto;html=1;entryX=0.5;entryY=0;entryDx=0;entryDy=0;entryPerimeter=0;fontSize=12;startArrow=none;startFill=0;endArrow=classicThin;endFill=1;startSize=8;endSize=9;targetPerimeterSpacing=18;strokeWidth=1;" edge="1" parent="1" source="lg4VMKvgGD_38bYyhGN5-39" target="TTH7sblJOYHqclslnIf9-191">
          <mxGeometry relative="1" as="geometry" />
        </mxCell>
        <mxCell id="lg4VMKvgGD_38bYyhGN5-39" value="Asess existing contract" style="html=1;outlineConnect=0;whiteSpace=wrap;fillColor=#ffff99;shape=mxgraph.archimate3.application;appType=proc;archiType=rounded;" parent="1" vertex="1">
          <mxGeometry x="926.25" y="622.62" width="193.75" height="47" as="geometry" />
        </mxCell>
        <mxCell id="A45w9OgC9GeDcUHBK8rj-1" style="edgeStyle=orthogonalEdgeStyle;rounded=0;jumpStyle=none;jumpSize=19;orthogonalLoop=1;jettySize=auto;html=1;entryX=1;entryY=0.5;entryDx=0;entryDy=0;entryPerimeter=0;fontSize=16;startArrow=none;startFill=0;endArrow=open;endFill=0;endSize=12;strokeWidth=1;" parent="1" source="lg4VMKvgGD_38bYyhGN5-40" target="QGW7R9Q1wVVROAhgocB1-1" edge="1">
          <mxGeometry relative="1" as="geometry">
            <Array as="points">
              <mxPoint x="2145" y="-42" />
              <mxPoint x="1160" y="-42" />
            </Array>
          </mxGeometry>
        </mxCell>
        <mxCell id="lg4VMKvgGD_38bYyhGN5-40" value="&lt;font style=&quot;font-size: 16px&quot;&gt;Procurement notification&lt;/font&gt;" style="shape=document;whiteSpace=wrap;html=1;boundedLbl=1;fontSize=36;strokeColor=#000000;fillColor=#FFFF99;" parent="1" vertex="1">
          <mxGeometry x="2550" y="194.62" width="190" height="70" as="geometry" />
        </mxCell>
        <mxCell id="lg4VMKvgGD_38bYyhGN5-41" value="" style="html=1;outlineConnect=0;whiteSpace=wrap;fillColor=#ffff99;shape=mxgraph.archimate3.application;appType=func;archiType=rounded;" parent="1" vertex="1">
          <mxGeometry x="2230" y="510.62" width="220" height="434" as="geometry" />
        </mxCell>
        <mxCell id="lg4VMKvgGD_38bYyhGN5-42" value="&lt;b&gt;Order Processing&lt;/b&gt;" style="text;html=1;strokeColor=none;fillColor=none;align=center;verticalAlign=middle;whiteSpace=wrap;rounded=0;" parent="1" vertex="1">
          <mxGeometry x="2252" y="507.62" width="170" height="30" as="geometry" />
        </mxCell>
        <mxCell id="lg4VMKvgGD_38bYyhGN5-59" style="edgeStyle=orthogonalEdgeStyle;rounded=0;jumpStyle=arc;jumpSize=19;orthogonalLoop=1;jettySize=auto;html=1;entryX=0.5;entryY=0;entryDx=0;entryDy=0;entryPerimeter=0;fontSize=16;startArrow=none;startFill=0;endArrow=classicThin;endFill=1;endSize=12;strokeWidth=1;" parent="1" source="lg4VMKvgGD_38bYyhGN5-43" target="lg4VMKvgGD_38bYyhGN5-54" edge="1">
          <mxGeometry relative="1" as="geometry" />
        </mxCell>
        <mxCell id="lg4VMKvgGD_38bYyhGN5-43" value="Place order" style="html=1;outlineConnect=0;whiteSpace=wrap;fillColor=#ffff99;shape=mxgraph.archimate3.application;appType=proc;archiType=rounded;" parent="1" vertex="1">
          <mxGeometry x="2258.75" y="650.62" width="155" height="75" as="geometry" />
        </mxCell>
        <mxCell id="lg4VMKvgGD_38bYyhGN5-44" style="edgeStyle=none;rounded=0;orthogonalLoop=1;jettySize=auto;html=1;entryX=0.5;entryY=1;entryDx=0;entryDy=0;entryPerimeter=0;fontSize=16;startArrow=none;startFill=0;endArrow=block;endFill=0;endSize=12;dashed=1;" parent="1" target="lg4VMKvgGD_38bYyhGN5-45" edge="1">
          <mxGeometry relative="1" as="geometry">
            <mxPoint x="2337.057114228457" y="505.87" as="sourcePoint" />
          </mxGeometry>
        </mxCell>
        <mxCell id="6fXcm6iijUz2EtuTbK9x-9" style="edgeStyle=none;rounded=0;jumpStyle=arc;jumpSize=19;orthogonalLoop=1;jettySize=auto;html=1;fontSize=16;startArrow=oval;startFill=1;endArrow=oval;endFill=1;endSize=8;targetPerimeterSpacing=8;strokeWidth=1;" parent="1" source="lg4VMKvgGD_38bYyhGN5-45" edge="1">
          <mxGeometry relative="1" as="geometry">
            <mxPoint x="2336.25" y="-35.379999999999995" as="targetPoint" />
          </mxGeometry>
        </mxCell>
        <mxCell id="lg4VMKvgGD_38bYyhGN5-45" value="&lt;div&gt;&lt;span style=&quot;font-size: 16px&quot;&gt;Order Service&lt;/span&gt;&lt;/div&gt;" style="strokeWidth=2;html=1;shape=mxgraph.flowchart.terminator;whiteSpace=wrap;fontSize=36;fillColor=#FFFF99;strokeColor=#000000;align=center;" parent="1" vertex="1">
          <mxGeometry x="2230" y="85.87" width="212.5" height="90" as="geometry" />
        </mxCell>
        <mxCell id="TTH7sblJOYHqclslnIf9-19" style="edgeStyle=orthogonalEdgeStyle;rounded=0;jumpStyle=arc;jumpSize=28;orthogonalLoop=1;jettySize=auto;html=1;entryX=0.165;entryY=0.079;entryDx=0;entryDy=0;entryPerimeter=0;fontSize=15;startArrow=none;startFill=0;endArrow=classicThin;endFill=1;endSize=13;targetPerimeterSpacing=6;" edge="1" parent="1" target="lg4VMKvgGD_38bYyhGN5-42">
          <mxGeometry relative="1" as="geometry">
            <mxPoint x="90" y="320" as="sourcePoint" />
            <Array as="points">
              <mxPoint x="2280" y="320" />
            </Array>
          </mxGeometry>
        </mxCell>
        <mxCell id="TTH7sblJOYHqclslnIf9-20" style="edgeStyle=orthogonalEdgeStyle;rounded=0;jumpStyle=arc;jumpSize=28;orthogonalLoop=1;jettySize=auto;html=1;fontSize=15;startArrow=none;startFill=0;endArrow=classicThin;endFill=1;endSize=13;targetPerimeterSpacing=6;" edge="1" parent="1">
          <mxGeometry relative="1" as="geometry">
            <mxPoint x="110" y="370" as="sourcePoint" />
            <mxPoint x="1865" y="484" as="targetPoint" />
            <Array as="points">
              <mxPoint x="1865" y="370" />
            </Array>
          </mxGeometry>
        </mxCell>
        <mxCell id="lg4VMKvgGD_38bYyhGN5-60" style="edgeStyle=orthogonalEdgeStyle;rounded=0;jumpStyle=arc;jumpSize=19;orthogonalLoop=1;jettySize=auto;html=1;entryX=0.5;entryY=0;entryDx=0;entryDy=0;entryPerimeter=0;fontSize=16;startArrow=none;startFill=0;endArrow=classicThin;endFill=1;endSize=12;strokeWidth=1;" parent="1" source="lg4VMKvgGD_38bYyhGN5-54" target="lg4VMKvgGD_38bYyhGN5-55" edge="1">
          <mxGeometry relative="1" as="geometry" />
        </mxCell>
        <mxCell id="lg4VMKvgGD_38bYyhGN5-54" value="Create order log" style="html=1;outlineConnect=0;whiteSpace=wrap;fillColor=#ffff99;shape=mxgraph.archimate3.application;appType=proc;archiType=rounded;" parent="1" vertex="1">
          <mxGeometry x="2258.75" y="754.62" width="155" height="75" as="geometry" />
        </mxCell>
        <mxCell id="lg4VMKvgGD_38bYyhGN5-56" style="edgeStyle=orthogonalEdgeStyle;rounded=0;jumpStyle=arc;jumpSize=19;orthogonalLoop=1;jettySize=auto;html=1;fontSize=16;startArrow=none;startFill=0;endArrow=block;endFill=0;endSize=12;strokeWidth=2;dashed=1;" parent="1" source="lg4VMKvgGD_38bYyhGN5-55" target="lg4VMKvgGD_38bYyhGN5-40" edge="1">
          <mxGeometry relative="1" as="geometry" />
        </mxCell>
        <mxCell id="lg4VMKvgGD_38bYyhGN5-55" value="Create order notification" style="html=1;outlineConnect=0;whiteSpace=wrap;fillColor=#ffff99;shape=mxgraph.archimate3.application;appType=proc;archiType=rounded;" parent="1" vertex="1">
          <mxGeometry x="2259.5" y="861.62" width="155" height="75" as="geometry" />
        </mxCell>
        <mxCell id="lg4VMKvgGD_38bYyhGN5-63" style="edgeStyle=orthogonalEdgeStyle;rounded=0;jumpStyle=arc;jumpSize=19;orthogonalLoop=1;jettySize=auto;html=1;fontSize=16;startArrow=none;startFill=0;endArrow=classicThin;endFill=1;endSize=12;strokeWidth=1;dashed=1;" parent="1" source="lg4VMKvgGD_38bYyhGN5-62" target="lg4VMKvgGD_38bYyhGN5-41" edge="1">
          <mxGeometry relative="1" as="geometry" />
        </mxCell>
        <mxCell id="lg4VMKvgGD_38bYyhGN5-62" value="Procurement Log" style="swimlane;fontSize=16;strokeColor=#000000;fillColor=#FFFF00;fontStyle=0;startSize=30;" parent="1" vertex="1">
          <mxGeometry x="2274" y="996.62" width="130" height="80" as="geometry" />
        </mxCell>
        <mxCell id="lg4VMKvgGD_38bYyhGN5-65" style="edgeStyle=orthogonalEdgeStyle;rounded=0;jumpStyle=arc;jumpSize=19;orthogonalLoop=1;jettySize=auto;html=1;fontSize=16;startArrow=none;startFill=0;endArrow=classicThin;endFill=1;endSize=12;strokeWidth=1;" parent="1" source="lg4VMKvgGD_38bYyhGN5-64" target="lg4VMKvgGD_38bYyhGN5-43" edge="1">
          <mxGeometry relative="1" as="geometry" />
        </mxCell>
        <mxCell id="lg4VMKvgGD_38bYyhGN5-64" value="Assess budget" style="html=1;outlineConnect=0;whiteSpace=wrap;fillColor=#ffff99;shape=mxgraph.archimate3.application;appType=proc;archiType=rounded;" parent="1" vertex="1">
          <mxGeometry x="2258" y="531.62" width="155" height="75" as="geometry" />
        </mxCell>
        <mxCell id="6fXcm6iijUz2EtuTbK9x-2" style="rounded=0;orthogonalLoop=1;jettySize=auto;html=1;entryX=0.5;entryY=0;entryDx=0;entryDy=0;entryPerimeter=0;endArrow=oval;endFill=1;startArrow=oval;startFill=1;" parent="1" target="QGW7R9Q1wVVROAhgocB1-1" edge="1" source="U1XcbnVtcfSXnthjC3mU-3">
          <mxGeometry relative="1" as="geometry">
            <mxPoint x="-740" y="-210" as="sourcePoint" />
            <mxPoint x="-740.5" y="-79.99999999999977" as="targetPoint" />
          </mxGeometry>
        </mxCell>
        <mxCell id="TTH7sblJOYHqclslnIf9-2" value="" style="group" vertex="1" connectable="0" parent="1">
          <mxGeometry x="1757" y="490" width="370" height="576" as="geometry" />
        </mxCell>
        <mxCell id="fxj44tK-4w2uh2Fvsi8H-1" value="" style="html=1;outlineConnect=0;whiteSpace=wrap;fillColor=#ffff99;shape=mxgraph.archimate3.application;appType=func;archiType=rounded;container=0;" vertex="1" parent="TTH7sblJOYHqclslnIf9-2">
          <mxGeometry y="6" width="370" height="570" as="geometry" />
        </mxCell>
        <mxCell id="6dj7l8othlbAQD0xuDVl-1" value="&lt;span style=&quot;font-family: &amp;#34;arialmt&amp;#34; ; font-size: 7pt&quot;&gt;Gather Requirements&amp;nbsp;&lt;/span&gt;" style="html=1;outlineConnect=0;whiteSpace=wrap;fillColor=#ffff99;shape=mxgraph.archimate3.application;appType=proc;archiType=rounded;container=0;" vertex="1" parent="TTH7sblJOYHqclslnIf9-2">
          <mxGeometry x="83" y="142.25" width="180" height="75" as="geometry" />
        </mxCell>
        <mxCell id="6dj7l8othlbAQD0xuDVl-2" value="&lt;span style=&quot;font-family: &amp;#34;arialmt&amp;#34; ; font-size: 7pt&quot;&gt;Source solution&lt;/span&gt;" style="html=1;outlineConnect=0;whiteSpace=wrap;fillColor=#ffff99;shape=mxgraph.archimate3.application;appType=proc;archiType=rounded;container=0;" vertex="1" parent="TTH7sblJOYHqclslnIf9-2">
          <mxGeometry x="83" y="246" width="180" height="75" as="geometry" />
        </mxCell>
        <mxCell id="6dj7l8othlbAQD0xuDVl-8" value="" style="edgeStyle=none;rounded=0;orthogonalLoop=1;jettySize=auto;html=1;endArrow=classic;endFill=1;" edge="1" parent="TTH7sblJOYHqclslnIf9-2" source="6dj7l8othlbAQD0xuDVl-1" target="6dj7l8othlbAQD0xuDVl-2">
          <mxGeometry relative="1" as="geometry" />
        </mxCell>
        <mxCell id="6dj7l8othlbAQD0xuDVl-3" value="&lt;span style=&quot;font-family: &amp;quot;arialmt&amp;quot; ; font-size: 7pt&quot;&gt;Budget Approval&lt;/span&gt;" style="html=1;outlineConnect=0;whiteSpace=wrap;fillColor=#ffff99;shape=mxgraph.archimate3.application;appType=proc;archiType=rounded;container=0;" vertex="1" parent="TTH7sblJOYHqclslnIf9-2">
          <mxGeometry x="83" y="361" width="180" height="75" as="geometry" />
        </mxCell>
        <mxCell id="6dj7l8othlbAQD0xuDVl-9" value="" style="edgeStyle=none;rounded=0;orthogonalLoop=1;jettySize=auto;html=1;endArrow=classic;endFill=1;" edge="1" parent="TTH7sblJOYHqclslnIf9-2" source="6dj7l8othlbAQD0xuDVl-2" target="6dj7l8othlbAQD0xuDVl-3">
          <mxGeometry relative="1" as="geometry" />
        </mxCell>
        <mxCell id="6dj7l8othlbAQD0xuDVl-4" value="&lt;span style=&quot;font-family: &amp;#34;arialmt&amp;#34; ; font-size: 7pt&quot;&gt;Include in following year budget&lt;/span&gt;" style="html=1;outlineConnect=0;whiteSpace=wrap;fillColor=#ffff99;shape=mxgraph.archimate3.application;appType=proc;archiType=rounded;container=0;" vertex="1" parent="TTH7sblJOYHqclslnIf9-2">
          <mxGeometry x="220" y="485" width="130" height="75" as="geometry" />
        </mxCell>
        <mxCell id="6dj7l8othlbAQD0xuDVl-11" style="edgeStyle=orthogonalEdgeStyle;rounded=0;orthogonalLoop=1;jettySize=auto;html=1;entryX=0.5;entryY=0;entryDx=0;entryDy=0;entryPerimeter=0;endArrow=classic;endFill=1;" edge="1" parent="TTH7sblJOYHqclslnIf9-2" source="6dj7l8othlbAQD0xuDVl-3" target="6dj7l8othlbAQD0xuDVl-4">
          <mxGeometry relative="1" as="geometry" />
        </mxCell>
        <mxCell id="6dj7l8othlbAQD0xuDVl-7" value="" style="edgeStyle=none;rounded=0;orthogonalLoop=1;jettySize=auto;html=1;endArrow=classic;endFill=1;" edge="1" parent="TTH7sblJOYHqclslnIf9-2" source="6dj7l8othlbAQD0xuDVl-5" target="6dj7l8othlbAQD0xuDVl-1">
          <mxGeometry relative="1" as="geometry" />
        </mxCell>
        <mxCell id="6dj7l8othlbAQD0xuDVl-5" value="Receive purchase request" style="html=1;outlineConnect=0;whiteSpace=wrap;fillColor=#ffff99;shape=mxgraph.archimate3.application;appType=proc;archiType=rounded;container=0;" vertex="1" parent="TTH7sblJOYHqclslnIf9-2">
          <mxGeometry x="83" y="26" width="180" height="75" as="geometry" />
        </mxCell>
        <mxCell id="6dj7l8othlbAQD0xuDVl-6" value="Place Order" style="html=1;outlineConnect=0;whiteSpace=wrap;fillColor=#ffff99;shape=mxgraph.archimate3.application;appType=proc;archiType=rounded;container=0;" vertex="1" parent="TTH7sblJOYHqclslnIf9-2">
          <mxGeometry x="20" y="486" width="145" height="75" as="geometry" />
        </mxCell>
        <mxCell id="6dj7l8othlbAQD0xuDVl-10" style="edgeStyle=orthogonalEdgeStyle;rounded=0;orthogonalLoop=1;jettySize=auto;html=1;entryX=0.5;entryY=0;entryDx=0;entryDy=0;entryPerimeter=0;endArrow=classic;endFill=1;" edge="1" parent="TTH7sblJOYHqclslnIf9-2" source="6dj7l8othlbAQD0xuDVl-3" target="6dj7l8othlbAQD0xuDVl-6">
          <mxGeometry relative="1" as="geometry" />
        </mxCell>
        <mxCell id="TTH7sblJOYHqclslnIf9-1" value="&lt;b&gt;Purchase through Special Technology team&lt;/b&gt;" style="text;html=1;strokeColor=none;fillColor=none;align=center;verticalAlign=middle;whiteSpace=wrap;rounded=0;container=0;" vertex="1" parent="TTH7sblJOYHqclslnIf9-2">
          <mxGeometry x="20" width="300" height="30" as="geometry" />
        </mxCell>
        <mxCell id="TTH7sblJOYHqclslnIf9-4" value="Requirements Report" style="swimlane;fontSize=15;strokeColor=#000000;fillColor=#FFFF00;fontStyle=0;startSize=30;" vertex="1" parent="1">
          <mxGeometry x="1650" y="1190" width="180" height="80" as="geometry" />
        </mxCell>
        <mxCell id="TTH7sblJOYHqclslnIf9-15" style="edgeStyle=orthogonalEdgeStyle;rounded=0;orthogonalLoop=1;jettySize=auto;html=1;fontSize=15;endArrow=oval;endFill=1;startArrow=oval;startFill=1;targetPerimeterSpacing=6;" edge="1" parent="1" source="TTH7sblJOYHqclslnIf9-14">
          <mxGeometry relative="1" as="geometry">
            <mxPoint x="1925" y="-40" as="targetPoint" />
          </mxGeometry>
        </mxCell>
        <mxCell id="TTH7sblJOYHqclslnIf9-14" value="&lt;div&gt;&lt;span style=&quot;font-size: 16px&quot;&gt;Special Technology Service&lt;/span&gt;&lt;/div&gt;" style="strokeWidth=2;html=1;shape=mxgraph.flowchart.terminator;whiteSpace=wrap;fontSize=36;fillColor=#FFFF99;strokeColor=#000000;align=center;" vertex="1" parent="1">
          <mxGeometry x="1818.75" y="78" width="212.5" height="90" as="geometry" />
        </mxCell>
        <mxCell id="TTH7sblJOYHqclslnIf9-16" style="edgeStyle=orthogonalEdgeStyle;rounded=0;orthogonalLoop=1;jettySize=auto;html=1;entryX=0.5;entryY=1;entryDx=0;entryDy=0;entryPerimeter=0;fontSize=15;startArrow=none;startFill=0;endArrow=block;endFill=0;targetPerimeterSpacing=6;dashed=1;endSize=13;" edge="1" parent="1" source="TTH7sblJOYHqclslnIf9-1" target="TTH7sblJOYHqclslnIf9-14">
          <mxGeometry relative="1" as="geometry">
            <mxPoint x="1924" y="300" as="sourcePoint" />
          </mxGeometry>
        </mxCell>
        <mxCell id="TTH7sblJOYHqclslnIf9-17" style="edgeStyle=orthogonalEdgeStyle;rounded=0;orthogonalLoop=1;jettySize=auto;html=1;entryX=0;entryY=0.5;entryDx=0;entryDy=0;entryPerimeter=0;dashed=1;fontSize=15;startArrow=none;startFill=0;endArrow=classicThin;endFill=1;endSize=13;targetPerimeterSpacing=6;jumpStyle=arc;jumpSize=16;" edge="1" parent="1" source="6dj7l8othlbAQD0xuDVl-6" target="lg4VMKvgGD_38bYyhGN5-43">
          <mxGeometry relative="1" as="geometry">
            <Array as="points">
              <mxPoint x="1847" y="1100" />
              <mxPoint x="2190" y="1100" />
              <mxPoint x="2190" y="688" />
            </Array>
          </mxGeometry>
        </mxCell>
        <mxCell id="TTH7sblJOYHqclslnIf9-18" style="edgeStyle=orthogonalEdgeStyle;rounded=0;orthogonalLoop=1;jettySize=auto;html=1;dashed=1;fontSize=15;startArrow=none;startFill=0;endArrow=block;endFill=0;endSize=13;targetPerimeterSpacing=6;jumpStyle=arc;jumpSize=21;" edge="1" parent="1" source="6dj7l8othlbAQD0xuDVl-1" target="TTH7sblJOYHqclslnIf9-4">
          <mxGeometry relative="1" as="geometry">
            <Array as="points">
              <mxPoint x="1720" y="670" />
            </Array>
          </mxGeometry>
        </mxCell>
        <mxCell id="TTH7sblJOYHqclslnIf9-65" style="edgeStyle=orthogonalEdgeStyle;rounded=0;jumpStyle=arc;jumpSize=28;orthogonalLoop=1;jettySize=auto;html=1;fontSize=12;startArrow=oval;startFill=1;endArrow=oval;endFill=1;startSize=8;endSize=10;targetPerimeterSpacing=16;strokeWidth=2;exitX=0.5;exitY=0;exitDx=0;exitDy=0;exitPerimeter=0;" edge="1" parent="1" source="TTH7sblJOYHqclslnIf9-63">
          <mxGeometry relative="1" as="geometry">
            <mxPoint x="-600" y="-40" as="targetPoint" />
            <mxPoint x="-600" y="60" as="sourcePoint" />
          </mxGeometry>
        </mxCell>
        <mxCell id="TTH7sblJOYHqclslnIf9-66" value="" style="group" vertex="1" connectable="0" parent="1">
          <mxGeometry x="-707.5" y="80" width="457.5" height="971" as="geometry" />
        </mxCell>
        <mxCell id="TTH7sblJOYHqclslnIf9-38" value="&lt;font style=&quot;font-size: 12px;&quot;&gt;Staff Role&lt;/font&gt;" style="shape=document;whiteSpace=wrap;html=1;boundedLbl=1;fontSize=36;strokeColor=#000000;fillColor=#FFFF99;" vertex="1" parent="TTH7sblJOYHqclslnIf9-66">
          <mxGeometry x="75.5" y="322.62" width="130" height="45.38" as="geometry" />
        </mxCell>
        <mxCell id="TTH7sblJOYHqclslnIf9-39" value="IT Procurement Manual" style="swimlane;fontSize=12;strokeColor=#000000;fillColor=#FFFF00;fontStyle=0" vertex="1" parent="TTH7sblJOYHqclslnIf9-66">
          <mxGeometry x="271.5" y="934" width="169" height="46" as="geometry" />
        </mxCell>
        <mxCell id="TTH7sblJOYHqclslnIf9-56" style="edgeStyle=orthogonalEdgeStyle;rounded=0;jumpStyle=arc;jumpSize=28;orthogonalLoop=1;jettySize=auto;html=1;entryX=0.75;entryY=0;entryDx=0;entryDy=0;dashed=1;fontSize=12;startArrow=none;startFill=0;endArrow=block;endFill=0;startSize=9;endSize=12;targetPerimeterSpacing=6;strokeWidth=2;" edge="1" parent="TTH7sblJOYHqclslnIf9-66" source="TTH7sblJOYHqclslnIf9-38" target="TTH7sblJOYHqclslnIf9-39">
          <mxGeometry relative="1" as="geometry">
            <Array as="points">
              <mxPoint x="398" y="345" />
              <mxPoint x="398" y="925" />
            </Array>
          </mxGeometry>
        </mxCell>
        <mxCell id="TTH7sblJOYHqclslnIf9-44" value="&lt;font style=&quot;font-size: 12px;&quot;&gt;Standard Item list&lt;/font&gt;" style="shape=document;whiteSpace=wrap;html=1;boundedLbl=1;fontSize=36;strokeColor=#000000;fillColor=#FFFF99;" vertex="1" parent="TTH7sblJOYHqclslnIf9-66">
          <mxGeometry x="77.5" y="383.12" width="130" height="45.38" as="geometry" />
        </mxCell>
        <mxCell id="TTH7sblJOYHqclslnIf9-27" value="" style="html=1;outlineConnect=0;whiteSpace=wrap;fillColor=#ffff99;shape=mxgraph.archimate3.application;appType=func;archiType=rounded;container=0;" vertex="1" parent="TTH7sblJOYHqclslnIf9-66">
          <mxGeometry x="7.5" y="451" width="210" height="399" as="geometry" />
        </mxCell>
        <mxCell id="TTH7sblJOYHqclslnIf9-43" style="edgeStyle=orthogonalEdgeStyle;rounded=0;jumpStyle=arc;jumpSize=28;orthogonalLoop=1;jettySize=auto;html=1;dashed=1;fontSize=12;startArrow=none;startFill=0;endArrow=classicThin;endFill=1;startSize=9;endSize=9;targetPerimeterSpacing=6;strokeWidth=1;" edge="1" parent="TTH7sblJOYHqclslnIf9-66" source="TTH7sblJOYHqclslnIf9-39" target="TTH7sblJOYHqclslnIf9-27">
          <mxGeometry relative="1" as="geometry">
            <Array as="points">
              <mxPoint x="112.5" y="948" />
            </Array>
          </mxGeometry>
        </mxCell>
        <mxCell id="TTH7sblJOYHqclslnIf9-31" value="Check standard Item list" style="html=1;outlineConnect=0;whiteSpace=wrap;fillColor=#ffff99;shape=mxgraph.archimate3.application;appType=proc;archiType=rounded;container=0;" vertex="1" parent="TTH7sblJOYHqclslnIf9-66">
          <mxGeometry x="27.5" y="567" width="160" height="45" as="geometry" />
        </mxCell>
        <mxCell id="TTH7sblJOYHqclslnIf9-64" style="edgeStyle=orthogonalEdgeStyle;rounded=0;jumpStyle=arc;jumpSize=28;orthogonalLoop=1;jettySize=auto;html=1;dashed=1;fontSize=12;startArrow=none;startFill=0;endArrow=block;endFill=0;startSize=9;endSize=12;targetPerimeterSpacing=6;strokeWidth=1;" edge="1" parent="TTH7sblJOYHqclslnIf9-66" source="TTH7sblJOYHqclslnIf9-32">
          <mxGeometry relative="1" as="geometry">
            <mxPoint x="67.5" y="80" as="targetPoint" />
            <Array as="points">
              <mxPoint x="67.5" y="290" />
              <mxPoint x="67.5" y="290" />
            </Array>
          </mxGeometry>
        </mxCell>
        <mxCell id="TTH7sblJOYHqclslnIf9-32" value="&lt;b&gt;Hardware Procurement&lt;/b&gt;" style="text;html=1;strokeColor=none;fillColor=none;align=center;verticalAlign=middle;whiteSpace=wrap;rounded=0;container=0;" vertex="1" parent="TTH7sblJOYHqclslnIf9-66">
          <mxGeometry x="22.5" y="450.9" width="170" height="43.84615384615385" as="geometry" />
        </mxCell>
        <mxCell id="TTH7sblJOYHqclslnIf9-45" style="rounded=0;jumpStyle=arc;jumpSize=28;orthogonalLoop=1;jettySize=auto;html=1;entryX=0.5;entryY=0;entryDx=0;entryDy=0;entryPerimeter=0;fontSize=12;startArrow=none;startFill=0;endArrow=classicThin;endFill=1;startSize=9;endSize=9;targetPerimeterSpacing=6;strokeWidth=1;" edge="1" parent="TTH7sblJOYHqclslnIf9-66" source="TTH7sblJOYHqclslnIf9-35" target="TTH7sblJOYHqclslnIf9-31">
          <mxGeometry relative="1" as="geometry" />
        </mxCell>
        <mxCell id="TTH7sblJOYHqclslnIf9-35" value="Receive Request" style="html=1;outlineConnect=0;whiteSpace=wrap;fillColor=#ffff99;shape=mxgraph.archimate3.application;appType=proc;archiType=rounded;container=0;" vertex="1" parent="TTH7sblJOYHqclslnIf9-66">
          <mxGeometry x="27.5" y="494.75" width="160" height="45.15" as="geometry" />
        </mxCell>
        <mxCell id="TTH7sblJOYHqclslnIf9-36" value="Staff role eligibility assessment" style="html=1;outlineConnect=0;whiteSpace=wrap;fillColor=#ffff99;shape=mxgraph.archimate3.application;appType=proc;archiType=rounded;container=0;" vertex="1" parent="TTH7sblJOYHqclslnIf9-66">
          <mxGeometry x="27.5" y="637.62" width="160" height="45" as="geometry" />
        </mxCell>
        <mxCell id="TTH7sblJOYHqclslnIf9-49" style="rounded=0;jumpStyle=arc;jumpSize=28;orthogonalLoop=1;jettySize=auto;html=1;fontSize=12;startArrow=none;startFill=0;endArrow=classicThin;endFill=1;startSize=9;endSize=9;targetPerimeterSpacing=6;strokeWidth=1;entryX=0.5;entryY=0;entryDx=0;entryDy=0;entryPerimeter=0;" edge="1" parent="TTH7sblJOYHqclslnIf9-66" source="TTH7sblJOYHqclslnIf9-31" target="TTH7sblJOYHqclslnIf9-36">
          <mxGeometry relative="1" as="geometry" />
        </mxCell>
        <mxCell id="TTH7sblJOYHqclslnIf9-58" value="" style="edgeStyle=orthogonalEdgeStyle;rounded=0;jumpStyle=arc;jumpSize=28;orthogonalLoop=1;jettySize=auto;html=1;fontSize=12;startArrow=none;startFill=0;endArrow=classicThin;endFill=1;startSize=9;endSize=12;targetPerimeterSpacing=6;strokeWidth=1;" edge="1" parent="TTH7sblJOYHqclslnIf9-66" source="TTH7sblJOYHqclslnIf9-37">
          <mxGeometry relative="1" as="geometry">
            <mxPoint x="107.5" y="790" as="targetPoint" />
          </mxGeometry>
        </mxCell>
        <mxCell id="TTH7sblJOYHqclslnIf9-37" value="Staff Eligibility Assessment" style="html=1;outlineConnect=0;whiteSpace=wrap;fillColor=#ffff99;shape=mxgraph.archimate3.application;appType=proc;archiType=rounded;container=0;" vertex="1" parent="TTH7sblJOYHqclslnIf9-66">
          <mxGeometry x="27.5" y="715" width="160" height="45" as="geometry" />
        </mxCell>
        <mxCell id="TTH7sblJOYHqclslnIf9-53" style="edgeStyle=orthogonalEdgeStyle;rounded=0;jumpStyle=arc;jumpSize=28;orthogonalLoop=1;jettySize=auto;html=1;entryX=0.5;entryY=0;entryDx=0;entryDy=0;entryPerimeter=0;fontSize=12;startArrow=none;startFill=0;endArrow=classicThin;endFill=1;startSize=9;endSize=11;targetPerimeterSpacing=6;strokeWidth=1;" edge="1" parent="TTH7sblJOYHqclslnIf9-66" source="TTH7sblJOYHqclslnIf9-36" target="TTH7sblJOYHqclslnIf9-37">
          <mxGeometry relative="1" as="geometry" />
        </mxCell>
        <mxCell id="TTH7sblJOYHqclslnIf9-52" style="edgeStyle=orthogonalEdgeStyle;rounded=0;jumpStyle=arc;jumpSize=28;orthogonalLoop=1;jettySize=auto;html=1;entryX=0.75;entryY=1;entryDx=0;entryDy=0;entryPerimeter=0;dashed=1;fontSize=12;startArrow=none;startFill=0;endArrow=classicThin;endFill=1;startSize=9;endSize=11;targetPerimeterSpacing=6;strokeWidth=1;" edge="1" parent="TTH7sblJOYHqclslnIf9-66" source="TTH7sblJOYHqclslnIf9-50" target="TTH7sblJOYHqclslnIf9-27">
          <mxGeometry relative="1" as="geometry" />
        </mxCell>
        <mxCell id="TTH7sblJOYHqclslnIf9-50" value="Standard item list" style="swimlane;fontSize=12;strokeColor=#000000;fillColor=#FFFF00;fontStyle=0" vertex="1" parent="TTH7sblJOYHqclslnIf9-66">
          <mxGeometry x="237.5" y="869" width="140" height="48.38" as="geometry" />
        </mxCell>
        <mxCell id="TTH7sblJOYHqclslnIf9-55" style="edgeStyle=orthogonalEdgeStyle;rounded=0;jumpStyle=arc;jumpSize=28;orthogonalLoop=1;jettySize=auto;html=1;entryX=0.5;entryY=0;entryDx=0;entryDy=0;fontSize=12;startArrow=none;startFill=0;endArrow=block;endFill=0;startSize=9;endSize=12;targetPerimeterSpacing=6;strokeWidth=2;dashed=1;" edge="1" parent="TTH7sblJOYHqclslnIf9-66" source="TTH7sblJOYHqclslnIf9-44" target="TTH7sblJOYHqclslnIf9-50">
          <mxGeometry relative="1" as="geometry">
            <Array as="points">
              <mxPoint x="308" y="406" />
            </Array>
          </mxGeometry>
        </mxCell>
        <mxCell id="TTH7sblJOYHqclslnIf9-57" value="Purchase Rejected" style="html=1;outlineConnect=0;whiteSpace=wrap;fillColor=#ffff99;shape=mxgraph.archimate3.application;appType=proc;archiType=rounded;container=0;" vertex="1" parent="TTH7sblJOYHqclslnIf9-66">
          <mxGeometry x="27.5" y="790" width="160" height="45" as="geometry" />
        </mxCell>
        <mxCell id="TTH7sblJOYHqclslnIf9-63" value="&lt;font style=&quot;font-size: 16px&quot;&gt;Hardware Procurement Service&lt;/font&gt;" style="strokeWidth=2;html=1;shape=mxgraph.flowchart.terminator;whiteSpace=wrap;fontSize=36;fillColor=#FFFF99;strokeColor=#000000;" vertex="1" parent="TTH7sblJOYHqclslnIf9-66">
          <mxGeometry width="215" height="80" as="geometry" />
        </mxCell>
        <mxCell id="TTH7sblJOYHqclslnIf9-77" style="edgeStyle=orthogonalEdgeStyle;rounded=0;jumpStyle=arc;jumpSize=28;orthogonalLoop=1;jettySize=auto;html=1;dashed=1;fontSize=12;startArrow=none;startFill=0;endArrow=none;endFill=0;startSize=8;endSize=10;targetPerimeterSpacing=16;strokeWidth=2;" edge="1" parent="1" source="TTH7sblJOYHqclslnIf9-72">
          <mxGeometry relative="1" as="geometry">
            <mxPoint x="-310" y="483" as="targetPoint" />
          </mxGeometry>
        </mxCell>
        <mxCell id="TTH7sblJOYHqclslnIf9-78" style="edgeStyle=orthogonalEdgeStyle;rounded=0;jumpStyle=arc;jumpSize=28;orthogonalLoop=1;jettySize=auto;html=1;dashed=1;fontSize=12;startArrow=none;startFill=0;endArrow=classic;endFill=1;startSize=8;endSize=9;targetPerimeterSpacing=16;strokeWidth=1;" edge="1" parent="1" source="TTH7sblJOYHqclslnIf9-39" target="TTH7sblJOYHqclslnIf9-26">
          <mxGeometry relative="1" as="geometry">
            <Array as="points">
              <mxPoint x="-184" y="1037" />
            </Array>
          </mxGeometry>
        </mxCell>
        <mxCell id="TTH7sblJOYHqclslnIf9-96" value="" style="group" vertex="1" connectable="0" parent="1">
          <mxGeometry x="-229" y="78" width="349.00000000000045" height="964.6199999999999" as="geometry" />
        </mxCell>
        <mxCell id="TTH7sblJOYHqclslnIf9-91" value="" style="group" vertex="1" connectable="0" parent="TTH7sblJOYHqclslnIf9-96">
          <mxGeometry width="308" height="964.6199999999999" as="geometry" />
        </mxCell>
        <mxCell id="YufO3D9QiGUvIhBIXzUx-1" value="&lt;font style=&quot;font-size: 16px&quot;&gt;Hardware Procurement Service&lt;/font&gt;" style="strokeWidth=2;html=1;shape=mxgraph.flowchart.terminator;whiteSpace=wrap;fontSize=36;fillColor=#FFFF99;strokeColor=#000000;" parent="TTH7sblJOYHqclslnIf9-91" vertex="1">
          <mxGeometry width="215" height="80" as="geometry" />
        </mxCell>
        <mxCell id="TTH7sblJOYHqclslnIf9-26" value="" style="html=1;outlineConnect=0;whiteSpace=wrap;fillColor=#ffff99;shape=mxgraph.archimate3.application;appType=func;archiType=rounded;" vertex="1" parent="TTH7sblJOYHqclslnIf9-91">
          <mxGeometry x="19" y="452" width="210" height="390.25" as="geometry" />
        </mxCell>
        <mxCell id="TTH7sblJOYHqclslnIf9-29" value="Receive Request" style="html=1;outlineConnect=0;whiteSpace=wrap;fillColor=#ffff99;shape=mxgraph.archimate3.application;appType=proc;archiType=rounded;" vertex="1" parent="TTH7sblJOYHqclslnIf9-91">
          <mxGeometry x="28" y="493.28" width="192" height="45.15" as="geometry" />
        </mxCell>
        <mxCell id="TTH7sblJOYHqclslnIf9-30" value="Assess Annual replacement schedule" style="html=1;outlineConnect=0;whiteSpace=wrap;fillColor=#ffff99;shape=mxgraph.archimate3.application;appType=proc;archiType=rounded;" vertex="1" parent="TTH7sblJOYHqclslnIf9-91">
          <mxGeometry x="29" y="567.75" width="190" height="42.88" as="geometry" />
        </mxCell>
        <mxCell id="TTH7sblJOYHqclslnIf9-79" value="" style="rounded=0;jumpStyle=arc;jumpSize=28;orthogonalLoop=1;jettySize=auto;html=1;fontSize=12;startArrow=none;startFill=0;endArrow=classic;endFill=1;startSize=8;endSize=9;targetPerimeterSpacing=16;strokeWidth=1;entryX=0.5;entryY=0;entryDx=0;entryDy=0;entryPerimeter=0;" edge="1" parent="TTH7sblJOYHqclslnIf9-91" source="TTH7sblJOYHqclslnIf9-29" target="TTH7sblJOYHqclslnIf9-30">
          <mxGeometry relative="1" as="geometry" />
        </mxCell>
        <mxCell id="TTH7sblJOYHqclslnIf9-33" value="&lt;b&gt;Replacement Hardware&lt;/b&gt;" style="text;html=1;strokeColor=none;fillColor=none;align=center;verticalAlign=middle;whiteSpace=wrap;rounded=0;" vertex="1" parent="TTH7sblJOYHqclslnIf9-91">
          <mxGeometry x="27" y="452" width="170" height="43.84615384615385" as="geometry" />
        </mxCell>
        <mxCell id="YufO3D9QiGUvIhBIXzUx-2" style="edgeStyle=none;rounded=0;orthogonalLoop=1;jettySize=auto;html=1;entryX=0.5;entryY=1;entryDx=0;entryDy=0;entryPerimeter=0;fontSize=16;startArrow=none;startFill=0;endArrow=block;endFill=0;endSize=12;dashed=1;" parent="TTH7sblJOYHqclslnIf9-91" source="TTH7sblJOYHqclslnIf9-33" target="YufO3D9QiGUvIhBIXzUx-1" edge="1">
          <mxGeometry relative="1" as="geometry" />
        </mxCell>
        <mxCell id="TTH7sblJOYHqclslnIf9-67" value="Assess Planned replacement" style="html=1;outlineConnect=0;whiteSpace=wrap;fillColor=#ffff99;shape=mxgraph.archimate3.application;appType=proc;archiType=rounded;" vertex="1" parent="TTH7sblJOYHqclslnIf9-91">
          <mxGeometry x="29" y="637" width="190" height="42.88" as="geometry" />
        </mxCell>
        <mxCell id="TTH7sblJOYHqclslnIf9-82" style="edgeStyle=none;rounded=0;jumpStyle=arc;jumpSize=28;orthogonalLoop=1;jettySize=auto;html=1;entryX=0.5;entryY=0;entryDx=0;entryDy=0;entryPerimeter=0;fontSize=12;startArrow=none;startFill=0;endArrow=classic;endFill=1;startSize=8;endSize=9;targetPerimeterSpacing=16;strokeWidth=1;" edge="1" parent="TTH7sblJOYHqclslnIf9-91" source="TTH7sblJOYHqclslnIf9-30" target="TTH7sblJOYHqclslnIf9-67">
          <mxGeometry relative="1" as="geometry" />
        </mxCell>
        <mxCell id="TTH7sblJOYHqclslnIf9-69" value="Budget Assesment" style="html=1;outlineConnect=0;whiteSpace=wrap;fillColor=#ffff99;shape=mxgraph.archimate3.application;appType=proc;archiType=rounded;" vertex="1" parent="TTH7sblJOYHqclslnIf9-91">
          <mxGeometry x="29" y="704.25" width="190" height="42.88" as="geometry" />
        </mxCell>
        <mxCell id="TTH7sblJOYHqclslnIf9-83" style="edgeStyle=none;rounded=0;jumpStyle=arc;jumpSize=28;orthogonalLoop=1;jettySize=auto;html=1;entryX=0.5;entryY=0;entryDx=0;entryDy=0;entryPerimeter=0;fontSize=12;startArrow=none;startFill=0;endArrow=classic;endFill=1;startSize=8;endSize=9;targetPerimeterSpacing=16;strokeWidth=1;" edge="1" parent="TTH7sblJOYHqclslnIf9-91" source="TTH7sblJOYHqclslnIf9-67" target="TTH7sblJOYHqclslnIf9-69">
          <mxGeometry relative="1" as="geometry" />
        </mxCell>
        <mxCell id="TTH7sblJOYHqclslnIf9-70" value="Purchase Rejected" style="html=1;outlineConnect=0;whiteSpace=wrap;fillColor=#ffff99;shape=mxgraph.archimate3.application;appType=proc;archiType=rounded;container=0;" vertex="1" parent="TTH7sblJOYHqclslnIf9-91">
          <mxGeometry x="30" y="770" width="190" height="45" as="geometry" />
        </mxCell>
        <mxCell id="TTH7sblJOYHqclslnIf9-84" style="edgeStyle=none;rounded=0;jumpStyle=arc;jumpSize=28;orthogonalLoop=1;jettySize=auto;html=1;entryX=0.5;entryY=0;entryDx=0;entryDy=0;entryPerimeter=0;fontSize=12;startArrow=none;startFill=0;endArrow=classic;endFill=1;startSize=8;endSize=9;targetPerimeterSpacing=16;strokeWidth=1;" edge="1" parent="TTH7sblJOYHqclslnIf9-91" source="TTH7sblJOYHqclslnIf9-69" target="TTH7sblJOYHqclslnIf9-70">
          <mxGeometry relative="1" as="geometry" />
        </mxCell>
        <mxCell id="TTH7sblJOYHqclslnIf9-71" value="&lt;font style=&quot;font-size: 12px;&quot;&gt;Annual replacement schedule&lt;/font&gt;" style="shape=document;whiteSpace=wrap;html=1;boundedLbl=1;fontSize=36;strokeColor=#000000;fillColor=#FFFF99;" vertex="1" parent="TTH7sblJOYHqclslnIf9-91">
          <mxGeometry x="58" y="387" width="172" height="48" as="geometry" />
        </mxCell>
        <mxCell id="TTH7sblJOYHqclslnIf9-72" value="&lt;font style=&quot;font-size: 12px;&quot;&gt;Replacement plan&lt;/font&gt;" style="shape=document;whiteSpace=wrap;html=1;boundedLbl=1;fontSize=36;strokeColor=#000000;fillColor=#FFFF99;" vertex="1" parent="TTH7sblJOYHqclslnIf9-91">
          <mxGeometry x="94" y="324.62" width="130" height="45.38" as="geometry" />
        </mxCell>
        <mxCell id="TTH7sblJOYHqclslnIf9-75" style="edgeStyle=orthogonalEdgeStyle;rounded=0;jumpStyle=arc;jumpSize=28;orthogonalLoop=1;jettySize=auto;html=1;entryX=0.807;entryY=0.999;entryDx=0;entryDy=0;entryPerimeter=0;dashed=1;fontSize=12;startArrow=none;startFill=0;endArrow=classicThin;endFill=1;startSize=8;endSize=10;targetPerimeterSpacing=16;strokeWidth=1;" edge="1" parent="TTH7sblJOYHqclslnIf9-91" source="TTH7sblJOYHqclslnIf9-73" target="TTH7sblJOYHqclslnIf9-26">
          <mxGeometry relative="1" as="geometry" />
        </mxCell>
        <mxCell id="TTH7sblJOYHqclslnIf9-73" value="ICT Hardware Replacement Schedule&#xa;		" style="swimlane;fontSize=12;strokeColor=#000000;fillColor=#FFFF00;fontStyle=0" vertex="1" parent="TTH7sblJOYHqclslnIf9-91">
          <mxGeometry x="69" y="922" width="239" height="42.62" as="geometry" />
        </mxCell>
        <mxCell id="TTH7sblJOYHqclslnIf9-74" style="edgeStyle=orthogonalEdgeStyle;rounded=0;jumpStyle=arc;jumpSize=28;orthogonalLoop=1;jettySize=auto;html=1;entryX=0.881;entryY=-0.004;entryDx=0;entryDy=0;entryPerimeter=0;fontSize=12;startArrow=none;startFill=0;endArrow=block;endFill=0;startSize=8;endSize=10;targetPerimeterSpacing=16;strokeWidth=2;dashed=1;" edge="1" parent="TTH7sblJOYHqclslnIf9-91" source="TTH7sblJOYHqclslnIf9-71" target="TTH7sblJOYHqclslnIf9-73">
          <mxGeometry relative="1" as="geometry">
            <Array as="points">
              <mxPoint x="280" y="402" />
            </Array>
          </mxGeometry>
        </mxCell>
        <mxCell id="TTH7sblJOYHqclslnIf9-93" style="edgeStyle=orthogonalEdgeStyle;rounded=0;jumpStyle=arc;jumpSize=28;orthogonalLoop=1;jettySize=auto;html=1;fontSize=12;startArrow=none;startFill=0;endArrow=none;endFill=0;startSize=8;endSize=9;targetPerimeterSpacing=16;strokeWidth=1;" edge="1" parent="TTH7sblJOYHqclslnIf9-96" source="TTH7sblJOYHqclslnIf9-67">
          <mxGeometry relative="1" as="geometry">
            <mxPoint x="309" y="292" as="targetPoint" />
            <Array as="points">
              <mxPoint x="309" y="658" />
              <mxPoint x="309" y="292" />
            </Array>
          </mxGeometry>
        </mxCell>
        <mxCell id="TTH7sblJOYHqclslnIf9-95" style="edgeStyle=orthogonalEdgeStyle;rounded=0;jumpStyle=arc;jumpSize=28;orthogonalLoop=1;jettySize=auto;html=1;fontSize=12;startArrow=none;startFill=0;endArrow=none;endFill=0;startSize=8;endSize=9;targetPerimeterSpacing=16;strokeWidth=1;" edge="1" parent="TTH7sblJOYHqclslnIf9-96" source="TTH7sblJOYHqclslnIf9-69">
          <mxGeometry relative="1" as="geometry">
            <mxPoint x="349.00000000000045" y="242" as="targetPoint" />
          </mxGeometry>
        </mxCell>
        <mxCell id="TTH7sblJOYHqclslnIf9-97" value="" style="group" vertex="1" connectable="0" parent="1">
          <mxGeometry x="150" y="79.19" width="349.00000000000045" height="964.6199999999999" as="geometry" />
        </mxCell>
        <mxCell id="TTH7sblJOYHqclslnIf9-98" value="" style="group" vertex="1" connectable="0" parent="TTH7sblJOYHqclslnIf9-97">
          <mxGeometry width="308" height="964.6199999999999" as="geometry" />
        </mxCell>
        <mxCell id="TTH7sblJOYHqclslnIf9-99" value="&lt;font style=&quot;font-size: 16px&quot;&gt;Mobile Phone Procurement Service&lt;/font&gt;" style="strokeWidth=2;html=1;shape=mxgraph.flowchart.terminator;whiteSpace=wrap;fontSize=36;fillColor=#FFFF99;strokeColor=#000000;" vertex="1" parent="TTH7sblJOYHqclslnIf9-98">
          <mxGeometry width="215" height="80" as="geometry" />
        </mxCell>
        <mxCell id="TTH7sblJOYHqclslnIf9-100" value="" style="html=1;outlineConnect=0;whiteSpace=wrap;fillColor=#ffff99;shape=mxgraph.archimate3.application;appType=func;archiType=rounded;" vertex="1" parent="TTH7sblJOYHqclslnIf9-98">
          <mxGeometry x="19" y="452" width="210" height="390.25" as="geometry" />
        </mxCell>
        <mxCell id="TTH7sblJOYHqclslnIf9-101" value="Receive Request" style="html=1;outlineConnect=0;whiteSpace=wrap;fillColor=#ffff99;shape=mxgraph.archimate3.application;appType=proc;archiType=rounded;" vertex="1" parent="TTH7sblJOYHqclslnIf9-98">
          <mxGeometry x="28" y="493.28" width="192" height="45.15" as="geometry" />
        </mxCell>
        <mxCell id="TTH7sblJOYHqclslnIf9-102" value="Assess Staff Eligibility" style="html=1;outlineConnect=0;whiteSpace=wrap;fillColor=#ffff99;shape=mxgraph.archimate3.application;appType=proc;archiType=rounded;" vertex="1" parent="TTH7sblJOYHqclslnIf9-98">
          <mxGeometry x="29" y="567.75" width="190" height="42.88" as="geometry" />
        </mxCell>
        <mxCell id="TTH7sblJOYHqclslnIf9-103" value="" style="rounded=0;jumpStyle=arc;jumpSize=28;orthogonalLoop=1;jettySize=auto;html=1;fontSize=12;startArrow=none;startFill=0;endArrow=classic;endFill=1;startSize=8;endSize=9;targetPerimeterSpacing=16;strokeWidth=1;entryX=0.5;entryY=0;entryDx=0;entryDy=0;entryPerimeter=0;" edge="1" parent="TTH7sblJOYHqclslnIf9-98" source="TTH7sblJOYHqclslnIf9-101" target="TTH7sblJOYHqclslnIf9-102">
          <mxGeometry relative="1" as="geometry" />
        </mxCell>
        <mxCell id="TTH7sblJOYHqclslnIf9-104" value="&lt;b&gt;Mobile Phone Procurement&lt;/b&gt;" style="text;html=1;strokeColor=none;fillColor=none;align=center;verticalAlign=middle;whiteSpace=wrap;rounded=0;" vertex="1" parent="TTH7sblJOYHqclslnIf9-98">
          <mxGeometry x="27" y="452" width="170" height="43.84615384615385" as="geometry" />
        </mxCell>
        <mxCell id="TTH7sblJOYHqclslnIf9-105" style="edgeStyle=none;rounded=0;orthogonalLoop=1;jettySize=auto;html=1;entryX=0.5;entryY=1;entryDx=0;entryDy=0;entryPerimeter=0;fontSize=16;startArrow=none;startFill=0;endArrow=block;endFill=0;endSize=12;dashed=1;" edge="1" parent="TTH7sblJOYHqclslnIf9-98" source="TTH7sblJOYHqclslnIf9-104" target="TTH7sblJOYHqclslnIf9-99">
          <mxGeometry relative="1" as="geometry" />
        </mxCell>
        <mxCell id="TTH7sblJOYHqclslnIf9-106" value="Budget holder approval" style="html=1;outlineConnect=0;whiteSpace=wrap;fillColor=#ffff99;shape=mxgraph.archimate3.application;appType=proc;archiType=rounded;" vertex="1" parent="TTH7sblJOYHqclslnIf9-98">
          <mxGeometry x="29" y="637" width="190" height="42.88" as="geometry" />
        </mxCell>
        <mxCell id="TTH7sblJOYHqclslnIf9-107" style="edgeStyle=none;rounded=0;jumpStyle=arc;jumpSize=28;orthogonalLoop=1;jettySize=auto;html=1;entryX=0.5;entryY=0;entryDx=0;entryDy=0;entryPerimeter=0;fontSize=12;startArrow=none;startFill=0;endArrow=classic;endFill=1;startSize=8;endSize=9;targetPerimeterSpacing=16;strokeWidth=1;" edge="1" parent="TTH7sblJOYHqclslnIf9-98" source="TTH7sblJOYHqclslnIf9-102" target="TTH7sblJOYHqclslnIf9-106">
          <mxGeometry relative="1" as="geometry" />
        </mxCell>
        <mxCell id="TTH7sblJOYHqclslnIf9-108" value="Purchase rejected" style="html=1;outlineConnect=0;whiteSpace=wrap;fillColor=#ffff99;shape=mxgraph.archimate3.application;appType=proc;archiType=rounded;" vertex="1" parent="TTH7sblJOYHqclslnIf9-98">
          <mxGeometry x="29" y="704.25" width="190" height="42.88" as="geometry" />
        </mxCell>
        <mxCell id="TTH7sblJOYHqclslnIf9-109" style="edgeStyle=none;rounded=0;jumpStyle=arc;jumpSize=28;orthogonalLoop=1;jettySize=auto;html=1;entryX=0.5;entryY=0;entryDx=0;entryDy=0;entryPerimeter=0;fontSize=12;startArrow=none;startFill=0;endArrow=classic;endFill=1;startSize=8;endSize=9;targetPerimeterSpacing=16;strokeWidth=1;" edge="1" parent="TTH7sblJOYHqclslnIf9-98" source="TTH7sblJOYHqclslnIf9-106" target="TTH7sblJOYHqclslnIf9-108">
          <mxGeometry relative="1" as="geometry" />
        </mxCell>
        <mxCell id="TTH7sblJOYHqclslnIf9-112" value="&lt;font style=&quot;font-size: 12px;&quot;&gt;ICT Equipment Min Specification&lt;/font&gt;" style="shape=document;whiteSpace=wrap;html=1;boundedLbl=1;fontSize=36;strokeColor=#000000;fillColor=#FFFF99;" vertex="1" parent="TTH7sblJOYHqclslnIf9-98">
          <mxGeometry x="30" y="377" width="200" height="48" as="geometry" />
        </mxCell>
        <mxCell id="TTH7sblJOYHqclslnIf9-117" style="edgeStyle=orthogonalEdgeStyle;rounded=0;jumpStyle=arc;jumpSize=28;orthogonalLoop=1;jettySize=auto;html=1;fontSize=12;startArrow=none;startFill=0;endArrow=none;endFill=0;startSize=8;endSize=9;targetPerimeterSpacing=16;strokeWidth=1;" edge="1" parent="TTH7sblJOYHqclslnIf9-97" source="TTH7sblJOYHqclslnIf9-106">
          <mxGeometry relative="1" as="geometry">
            <mxPoint x="309" y="240.81" as="targetPoint" />
            <Array as="points">
              <mxPoint x="309" y="658" />
              <mxPoint x="309" y="292" />
            </Array>
          </mxGeometry>
        </mxCell>
        <mxCell id="TTH7sblJOYHqclslnIf9-119" style="edgeStyle=orthogonalEdgeStyle;rounded=0;jumpStyle=arc;jumpSize=28;orthogonalLoop=1;jettySize=auto;html=1;fontSize=12;startArrow=none;startFill=0;endArrow=none;endFill=0;startSize=8;endSize=9;targetPerimeterSpacing=16;strokeWidth=2;dashed=1;" edge="1" parent="1" source="TTH7sblJOYHqclslnIf9-112">
          <mxGeometry relative="1" as="geometry">
            <mxPoint x="50.000000000000455" y="480" as="targetPoint" />
          </mxGeometry>
        </mxCell>
        <mxCell id="TTH7sblJOYHqclslnIf9-120" style="edgeStyle=orthogonalEdgeStyle;rounded=0;jumpStyle=arc;jumpSize=28;orthogonalLoop=1;jettySize=auto;html=1;dashed=1;fontSize=12;startArrow=none;startFill=0;endArrow=classicThin;endFill=1;startSize=8;endSize=9;targetPerimeterSpacing=16;strokeWidth=1;entryX=0.5;entryY=1;entryDx=0;entryDy=0;entryPerimeter=0;" edge="1" parent="1" source="TTH7sblJOYHqclslnIf9-73" target="TTH7sblJOYHqclslnIf9-100">
          <mxGeometry relative="1" as="geometry" />
        </mxCell>
        <mxCell id="TTH7sblJOYHqclslnIf9-121" style="edgeStyle=orthogonalEdgeStyle;rounded=0;jumpStyle=arc;jumpSize=28;orthogonalLoop=1;jettySize=auto;html=1;entryX=0.75;entryY=1;entryDx=0;entryDy=0;entryPerimeter=0;dashed=1;fontSize=12;startArrow=none;startFill=0;endArrow=classicThin;endFill=1;startSize=8;endSize=9;targetPerimeterSpacing=16;strokeWidth=1;" edge="1" parent="1" source="TTH7sblJOYHqclslnIf9-39" target="TTH7sblJOYHqclslnIf9-100">
          <mxGeometry relative="1" as="geometry">
            <Array as="points">
              <mxPoint x="-351" y="1080" />
              <mxPoint x="327" y="1080" />
            </Array>
          </mxGeometry>
        </mxCell>
        <mxCell id="TTH7sblJOYHqclslnIf9-123" style="edgeStyle=orthogonalEdgeStyle;rounded=0;jumpStyle=arc;jumpSize=28;orthogonalLoop=1;jettySize=auto;html=1;fontSize=12;startArrow=oval;startFill=1;endArrow=oval;endFill=1;startSize=8;endSize=9;targetPerimeterSpacing=18;strokeWidth=2;" edge="1" parent="1" source="TTH7sblJOYHqclslnIf9-99">
          <mxGeometry relative="1" as="geometry">
            <mxPoint x="257.50000000000045" y="-40" as="targetPoint" />
          </mxGeometry>
        </mxCell>
        <mxCell id="TTH7sblJOYHqclslnIf9-129" style="edgeStyle=orthogonalEdgeStyle;rounded=0;jumpStyle=arc;jumpSize=28;orthogonalLoop=1;jettySize=auto;html=1;entryX=0.5;entryY=0;entryDx=0;entryDy=0;entryPerimeter=0;fontSize=12;startArrow=none;startFill=0;endArrow=classicThin;endFill=1;startSize=8;endSize=9;targetPerimeterSpacing=18;strokeWidth=1;" edge="1" parent="1" source="TTH7sblJOYHqclslnIf9-124" target="bYiO1aN39VMfyDqgWt_7-3">
          <mxGeometry relative="1" as="geometry">
            <Array as="points">
              <mxPoint x="547" y="610" />
              <mxPoint x="547" y="610" />
            </Array>
          </mxGeometry>
        </mxCell>
        <mxCell id="TTH7sblJOYHqclslnIf9-130" style="edgeStyle=orthogonalEdgeStyle;rounded=0;jumpStyle=arc;jumpSize=28;orthogonalLoop=1;jettySize=auto;html=1;fontSize=12;startArrow=none;startFill=0;endArrow=classicThin;endFill=1;startSize=8;endSize=9;targetPerimeterSpacing=18;strokeWidth=1;" edge="1" parent="1" source="TTH7sblJOYHqclslnIf9-124">
          <mxGeometry relative="1" as="geometry">
            <mxPoint x="727" y="620" as="targetPoint" />
            <Array as="points">
              <mxPoint x="727" y="576" />
            </Array>
          </mxGeometry>
        </mxCell>
        <mxCell id="TTH7sblJOYHqclslnIf9-124" value="Receive Request" style="html=1;outlineConnect=0;whiteSpace=wrap;fillColor=#ffff99;shape=mxgraph.archimate3.application;appType=proc;archiType=rounded;" vertex="1" parent="1">
          <mxGeometry x="487" y="553" width="192" height="45.15" as="geometry" />
        </mxCell>
        <mxCell id="TTH7sblJOYHqclslnIf9-133" style="edgeStyle=orthogonalEdgeStyle;rounded=0;jumpStyle=arc;jumpSize=28;orthogonalLoop=1;jettySize=auto;html=1;entryX=0.5;entryY=0;entryDx=0;entryDy=0;entryPerimeter=0;fontSize=12;startArrow=none;startFill=0;endArrow=classicThin;endFill=1;startSize=8;endSize=9;targetPerimeterSpacing=18;strokeWidth=1;" edge="1" parent="1" source="TTH7sblJOYHqclslnIf9-125" target="TTH7sblJOYHqclslnIf9-127">
          <mxGeometry relative="1" as="geometry" />
        </mxCell>
        <mxCell id="TTH7sblJOYHqclslnIf9-138" style="edgeStyle=orthogonalEdgeStyle;rounded=0;jumpStyle=arc;jumpSize=28;orthogonalLoop=1;jettySize=auto;html=1;fontSize=12;startArrow=none;startFill=0;endArrow=none;endFill=0;startSize=8;endSize=9;targetPerimeterSpacing=18;strokeWidth=1;" edge="1" parent="1" source="TTH7sblJOYHqclslnIf9-125">
          <mxGeometry relative="1" as="geometry">
            <mxPoint x="840" y="370" as="targetPoint" />
            <Array as="points">
              <mxPoint x="850" y="651" />
              <mxPoint x="850" y="370" />
            </Array>
          </mxGeometry>
        </mxCell>
        <mxCell id="TTH7sblJOYHqclslnIf9-125" value="Staff member eligibility assessment" style="html=1;outlineConnect=0;whiteSpace=wrap;fillColor=#ffff99;shape=mxgraph.archimate3.application;appType=proc;archiType=rounded;" vertex="1" parent="1">
          <mxGeometry x="635" y="628" width="181" height="45.15" as="geometry" />
        </mxCell>
        <mxCell id="TTH7sblJOYHqclslnIf9-136" style="edgeStyle=orthogonalEdgeStyle;rounded=0;jumpStyle=arc;jumpSize=28;orthogonalLoop=1;jettySize=auto;html=1;fontSize=12;startArrow=none;startFill=0;endArrow=none;endFill=0;startSize=8;endSize=9;targetPerimeterSpacing=18;strokeWidth=1;" edge="1" parent="1" source="TTH7sblJOYHqclslnIf9-127">
          <mxGeometry relative="1" as="geometry">
            <mxPoint x="850" y="320" as="targetPoint" />
            <Array as="points">
              <mxPoint x="870" y="736" />
              <mxPoint x="870" y="320" />
            </Array>
          </mxGeometry>
        </mxCell>
        <mxCell id="TTH7sblJOYHqclslnIf9-127" value="Budget Assesment" style="html=1;outlineConnect=0;whiteSpace=wrap;fillColor=#ffff99;shape=mxgraph.archimate3.application;appType=proc;archiType=rounded;" vertex="1" parent="1">
          <mxGeometry x="636" y="713.47" width="179" height="45.15" as="geometry" />
        </mxCell>
        <mxCell id="TTH7sblJOYHqclslnIf9-135" style="edgeStyle=orthogonalEdgeStyle;rounded=0;jumpStyle=arc;jumpSize=28;orthogonalLoop=1;jettySize=auto;html=1;fontSize=12;startArrow=none;startFill=0;endArrow=classicThin;endFill=1;startSize=8;endSize=9;targetPerimeterSpacing=18;strokeWidth=1;dashed=1;" edge="1" parent="1" source="TTH7sblJOYHqclslnIf9-73">
          <mxGeometry relative="1" as="geometry">
            <mxPoint x="520" y="870.0000000000005" as="targetPoint" />
          </mxGeometry>
        </mxCell>
        <mxCell id="lg4VMKvgGD_38bYyhGN5-27" style="edgeStyle=orthogonalEdgeStyle;rounded=0;jumpStyle=arc;jumpSize=19;orthogonalLoop=1;jettySize=auto;html=1;dashed=1;fontSize=16;startArrow=none;startFill=0;endArrow=block;endFill=0;endSize=12;strokeWidth=2;entryX=1;entryY=0.25;entryDx=0;entryDy=0;" parent="1" source="lg4VMKvgGD_38bYyhGN5-8" target="lg4VMKvgGD_38bYyhGN5-3" edge="1">
          <mxGeometry relative="1" as="geometry">
            <mxPoint x="850" y="930" as="targetPoint" />
            <Array as="points">
              <mxPoint x="900" y="230" />
              <mxPoint x="900" y="1055" />
            </Array>
          </mxGeometry>
        </mxCell>
        <mxCell id="TTH7sblJOYHqclslnIf9-54" style="edgeStyle=orthogonalEdgeStyle;rounded=0;jumpStyle=arc;jumpSize=28;orthogonalLoop=1;jettySize=auto;html=1;fontSize=12;startArrow=none;startFill=0;endArrow=none;endFill=0;startSize=9;endSize=11;targetPerimeterSpacing=6;strokeWidth=1;" edge="1" parent="1" source="TTH7sblJOYHqclslnIf9-36">
          <mxGeometry relative="1" as="geometry">
            <mxPoint x="90" y="320" as="targetPoint" />
            <Array as="points">
              <mxPoint x="-270" y="740" />
              <mxPoint x="-270" y="320" />
            </Array>
          </mxGeometry>
        </mxCell>
        <mxCell id="TTH7sblJOYHqclslnIf9-60" style="edgeStyle=orthogonalEdgeStyle;rounded=0;jumpStyle=arc;jumpSize=28;orthogonalLoop=1;jettySize=auto;html=1;fontSize=12;startArrow=none;startFill=0;endArrow=none;endFill=0;startSize=9;endSize=12;targetPerimeterSpacing=6;strokeWidth=1;" edge="1" parent="1" source="TTH7sblJOYHqclslnIf9-37">
          <mxGeometry relative="1" as="geometry">
            <mxPoint x="110" y="370" as="targetPoint" />
            <Array as="points">
              <mxPoint x="-240" y="818" />
              <mxPoint x="-240" y="370" />
            </Array>
          </mxGeometry>
        </mxCell>
        <mxCell id="TTH7sblJOYHqclslnIf9-197" style="edgeStyle=orthogonalEdgeStyle;rounded=0;jumpStyle=arc;jumpSize=28;orthogonalLoop=1;jettySize=auto;html=1;entryX=0.5;entryY=0;entryDx=0;entryDy=0;entryPerimeter=0;fontSize=12;startArrow=none;startFill=0;endArrow=classicThin;endFill=1;startSize=8;endSize=9;targetPerimeterSpacing=18;strokeWidth=1;" edge="1" parent="1" source="TTH7sblJOYHqclslnIf9-190" target="lg4VMKvgGD_38bYyhGN5-39">
          <mxGeometry relative="1" as="geometry" />
        </mxCell>
        <mxCell id="TTH7sblJOYHqclslnIf9-190" value="Receive Request" style="html=1;outlineConnect=0;whiteSpace=wrap;fillColor=#ffff99;shape=mxgraph.archimate3.application;appType=proc;archiType=rounded;" vertex="1" parent="1">
          <mxGeometry x="927.25" y="546.55" width="192" height="45.15" as="geometry" />
        </mxCell>
        <mxCell id="TTH7sblJOYHqclslnIf9-193" style="edgeStyle=orthogonalEdgeStyle;rounded=0;jumpStyle=arc;jumpSize=28;orthogonalLoop=1;jettySize=auto;html=1;fontSize=12;startArrow=none;startFill=0;endArrow=none;endFill=0;startSize=8;endSize=9;targetPerimeterSpacing=18;strokeWidth=1;" edge="1" parent="1" source="TTH7sblJOYHqclslnIf9-191">
          <mxGeometry relative="1" as="geometry">
            <mxPoint x="1160" y="370" as="targetPoint" />
          </mxGeometry>
        </mxCell>
        <mxCell id="TTH7sblJOYHqclslnIf9-191" value="Budget holder approval" style="html=1;outlineConnect=0;whiteSpace=wrap;fillColor=#ffff99;shape=mxgraph.archimate3.application;appType=proc;archiType=rounded;" vertex="1" parent="1">
          <mxGeometry x="926.13" y="695.62" width="193.75" height="47" as="geometry" />
        </mxCell>
        <mxCell id="TTH7sblJOYHqclslnIf9-192" value="" style="group" vertex="1" connectable="0" parent="1">
          <mxGeometry x="1500" y="500" width="220" height="144.62" as="geometry" />
        </mxCell>
        <mxCell id="Mf4NN4WEwdlUD9Ftzclx-3" value="" style="html=1;outlineConnect=0;whiteSpace=wrap;fillColor=#ffff99;shape=mxgraph.archimate3.application;appType=func;archiType=rounded;" parent="TTH7sblJOYHqclslnIf9-192" vertex="1">
          <mxGeometry y="4.6200000000000045" width="220" height="140" as="geometry" />
        </mxCell>
        <mxCell id="F4ZunI-th2Frl8_olumg-1" value="&lt;b&gt;other ICT purchase&lt;/b&gt;" style="text;html=1;strokeColor=none;fillColor=none;align=center;verticalAlign=middle;whiteSpace=wrap;rounded=0;" parent="TTH7sblJOYHqclslnIf9-192" vertex="1">
          <mxGeometry x="18" width="170" height="30" as="geometry" />
        </mxCell>
        <mxCell id="F4ZunI-th2Frl8_olumg-2" value="Receive Request" style="html=1;outlineConnect=0;whiteSpace=wrap;fillColor=#ffff99;shape=mxgraph.archimate3.application;appType=proc;archiType=rounded;" parent="TTH7sblJOYHqclslnIf9-192" vertex="1">
          <mxGeometry x="25.5" y="50" width="155" height="75" as="geometry" />
        </mxCell>
        <mxCell id="TTH7sblJOYHqclslnIf9-200" style="edgeStyle=orthogonalEdgeStyle;rounded=0;jumpStyle=arc;jumpSize=28;orthogonalLoop=1;jettySize=auto;html=1;entryX=0.5;entryY=0;entryDx=0;entryDy=0;entryPerimeter=0;fontSize=12;startArrow=none;startFill=0;endArrow=classicThin;endFill=1;startSize=8;endSize=9;targetPerimeterSpacing=18;strokeWidth=1;" edge="1" parent="1" source="TTH7sblJOYHqclslnIf9-195" target="lg4VMKvgGD_38bYyhGN5-31">
          <mxGeometry relative="1" as="geometry" />
        </mxCell>
        <mxCell id="TTH7sblJOYHqclslnIf9-201" style="edgeStyle=orthogonalEdgeStyle;rounded=0;jumpStyle=arc;jumpSize=28;orthogonalLoop=1;jettySize=auto;html=1;entryX=1;entryY=0.5;entryDx=0;entryDy=0;entryPerimeter=0;fontSize=12;startArrow=none;startFill=0;endArrow=classicThin;endFill=1;startSize=8;endSize=9;targetPerimeterSpacing=18;strokeWidth=1;" edge="1" parent="1" source="TTH7sblJOYHqclslnIf9-195" target="alFZZm2k_4Cd0gBak7bV-2">
          <mxGeometry relative="1" as="geometry">
            <Array as="points">
              <mxPoint x="1380" y="560" />
              <mxPoint x="1380" y="708" />
            </Array>
          </mxGeometry>
        </mxCell>
        <mxCell id="TTH7sblJOYHqclslnIf9-195" value="Receive Request" style="html=1;outlineConnect=0;whiteSpace=wrap;fillColor=#ffff99;shape=mxgraph.archimate3.application;appType=proc;archiType=rounded;" vertex="1" parent="1">
          <mxGeometry x="1179.75" y="537.62" width="192" height="45.15" as="geometry" />
        </mxCell>
        <mxCell id="TTH7sblJOYHqclslnIf9-203" style="edgeStyle=orthogonalEdgeStyle;rounded=0;jumpStyle=arc;jumpSize=28;orthogonalLoop=1;jettySize=auto;html=1;fontSize=12;startArrow=none;startFill=0;endArrow=none;endFill=0;startSize=8;endSize=9;targetPerimeterSpacing=18;strokeWidth=1;" edge="1" parent="1" source="TTH7sblJOYHqclslnIf9-199">
          <mxGeometry relative="1" as="geometry">
            <mxPoint x="1470" y="320" as="targetPoint" />
          </mxGeometry>
        </mxCell>
        <mxCell id="TTH7sblJOYHqclslnIf9-199" value="Budget holder approval" style="html=1;outlineConnect=0;whiteSpace=wrap;fillColor=#ffff99;shape=mxgraph.archimate3.application;appType=proc;archiType=rounded;" vertex="1" parent="1">
          <mxGeometry x="1191" y="770" width="170" height="36.25" as="geometry" />
        </mxCell>
        <mxCell id="TTH7sblJOYHqclslnIf9-205" style="edgeStyle=orthogonalEdgeStyle;rounded=0;jumpStyle=arc;jumpSize=28;orthogonalLoop=1;jettySize=auto;html=1;fontSize=12;startArrow=none;startFill=0;endArrow=none;endFill=0;startSize=8;endSize=9;targetPerimeterSpacing=18;strokeWidth=1;" edge="1" parent="1" source="F4ZunI-th2Frl8_olumg-2">
          <mxGeometry relative="1" as="geometry">
            <mxPoint x="1690" y="370" as="targetPoint" />
            <Array as="points">
              <mxPoint x="1730" y="588" />
              <mxPoint x="1730" y="370" />
            </Array>
          </mxGeometry>
        </mxCell>
        <mxCell id="TTH7sblJOYHqclslnIf9-209" style="rounded=0;jumpStyle=arc;jumpSize=28;orthogonalLoop=1;jettySize=auto;html=1;fontSize=12;startArrow=none;startFill=0;endArrow=classicThin;endFill=1;startSize=8;endSize=9;targetPerimeterSpacing=18;strokeWidth=1;exitX=0.5;exitY=1;exitDx=0;exitDy=0;edgeStyle=orthogonalEdgeStyle;dashed=1;entryX=0.5;entryY=1;entryDx=0;entryDy=0;entryPerimeter=0;" edge="1" parent="1" source="384_SKbXH8va6ICWdZGR-1" target="Mf4NN4WEwdlUD9Ftzclx-3">
          <mxGeometry relative="1" as="geometry">
            <mxPoint x="1600" y="960" as="targetPoint" />
            <mxPoint x="-520" y="1099" as="sourcePoint" />
            <Array as="points">
              <mxPoint x="-880" y="1290" />
              <mxPoint x="1610" y="1290" />
            </Array>
          </mxGeometry>
        </mxCell>
        <mxCell id="-uLhffGG3UUyxKicmzSK-3" value="Third Party" style="shape=umlActor;verticalLabelPosition=bottom;verticalAlign=top;html=1;outlineConnect=0;" vertex="1" parent="1">
          <mxGeometry x="-530" y="-345" width="21" height="40" as="geometry" />
        </mxCell>
        <mxCell id="-uLhffGG3UUyxKicmzSK-13" style="edgeStyle=none;rounded=0;orthogonalLoop=1;jettySize=auto;html=1;startArrow=oval;startFill=1;endArrow=circle;endFill=0;endSize=12;exitX=1;exitY=0.3333333333333333;exitDx=0;exitDy=0;exitPerimeter=0;" edge="1" parent="1">
          <mxGeometry relative="1" as="geometry">
            <mxPoint x="-638" y="-320.95" as="targetPoint" />
            <mxPoint x="-769" y="-320.95" as="sourcePoint" />
          </mxGeometry>
        </mxCell>
        <mxCell id="-uLhffGG3UUyxKicmzSK-14" style="edgeStyle=none;rounded=0;orthogonalLoop=1;jettySize=auto;html=1;startArrow=oval;startFill=1;endArrow=circle;endFill=0;endSize=12;" edge="1" parent="1">
          <mxGeometry relative="1" as="geometry">
            <mxPoint x="-648" y="-319.95" as="targetPoint" />
            <mxPoint x="-528" y="-319.95" as="sourcePoint" />
          </mxGeometry>
        </mxCell>
      </root>
    </mxGraphModel>
  </diagram>
</mxfile>
